<?xml version="1.0" encoding="utf-8" standalone="no"?>
<!DOCTYPE svg PUBLIC "-//W3C//DTD SVG 1.1//EN"
  "http://www.w3.org/Graphics/SVG/1.1/DTD/svg11.dtd">
<svg xmlns:xlink="http://www.w3.org/1999/xlink" width="504pt" height="288pt" viewBox="0 0 504 288" xmlns="http://www.w3.org/2000/svg" version="1.1">
 <metadata>
  <rdf:RDF xmlns:dc="http://purl.org/dc/elements/1.1/" xmlns:cc="http://creativecommons.org/ns#" xmlns:rdf="http://www.w3.org/1999/02/22-rdf-syntax-ns#">
   <cc:Work>
    <dc:type rdf:resource="http://purl.org/dc/dcmitype/StillImage"/>
    <dc:date>2026-06-15T14:43:21.160077</dc:date>
    <dc:format>image/svg+xml</dc:format>
    <dc:creator>
     <cc:Agent>
      <dc:title>Matplotlib v3.10.9, https://matplotlib.org/</dc:title>
     </cc:Agent>
    </dc:creator>
   </cc:Work>
  </rdf:RDF>
 </metadata>
 <defs>
  <style type="text/css">*{stroke-linejoin: round; stroke-linecap: butt}</style>
 </defs>
 <g id="figure_1">
  <g id="patch_1">
   <path d="M 0 288 
L 504 288 
L 504 0 
L 0 0 
z
" style="fill: #ffffff"/>
  </g>
  <g id="axes_1">
   <g id="patch_2">
    <path d="M 49.361435 246.04 
L 493.2 246.04 
L 493.2 39.912 
L 49.361435 39.912 
z
" style="fill: #ffffff"/>
   </g>
   <g id="patch_3">
    <path d="M 69.535915 71503.273882 
L 74.579535 71503.273882 
L 74.579535 181.214349 
L 69.535915 181.214349 
z
" clip-path="url(#p6df8a09fbd)" style="fill: #dd8452"/>
   </g>
   <g id="patch_4">
    <path d="M 74.579535 71503.273882 
L 79.623155 71503.273882 
L 79.623155 141.000641 
L 74.579535 141.000641 
z
" clip-path="url(#p6df8a09fbd)" style="fill: #dd8452"/>
   </g>
   <g id="patch_5">
    <path d="M 79.623155 71503.273882 
L 84.666775 71503.273882 
L 84.666775 131.401131 
L 79.623155 131.401131 
z
" clip-path="url(#p6df8a09fbd)" style="fill: #dd8452"/>
   </g>
   <g id="patch_6">
    <path d="M 84.666775 71503.273882 
L 89.710395 71503.273882 
L 89.710395 84.848894 
L 84.666775 84.848894 
z
" clip-path="url(#p6df8a09fbd)" style="fill: #dd8452"/>
   </g>
   <g id="patch_7">
    <path d="M 89.710395 71503.273882 
L 94.754015 71503.273882 
L 94.754015 60.971084 
L 89.710395 60.971084 
z
" clip-path="url(#p6df8a09fbd)" style="fill: #dd8452"/>
   </g>
   <g id="patch_8">
    <path d="M 94.754015 71503.273882 
L 99.797635 71503.273882 
L 99.797635 60.134528 
L 94.754015 60.134528 
z
" clip-path="url(#p6df8a09fbd)" style="fill: #dd8452"/>
   </g>
   <g id="patch_9">
    <path d="M 99.797635 71503.273882 
L 104.841255 71503.273882 
L 104.841255 52.818131 
L 99.797635 52.818131 
z
" clip-path="url(#p6df8a09fbd)" style="fill: #dd8452"/>
   </g>
   <g id="patch_10">
    <path d="M 104.841255 71503.273882 
L 109.884875 71503.273882 
L 109.884875 49.281455 
L 104.841255 49.281455 
z
" clip-path="url(#p6df8a09fbd)" style="fill: #dd8452"/>
   </g>
   <g id="patch_11">
    <path d="M 109.884875 71503.273882 
L 114.928496 71503.273882 
L 114.928496 61.83088 
L 109.884875 61.83088 
z
" clip-path="url(#p6df8a09fbd)" style="fill: #dd8452"/>
   </g>
   <g id="patch_12">
    <path d="M 114.928496 71503.273882 
L 119.972116 71503.273882 
L 119.972116 57.467268 
L 114.928496 57.467268 
z
" clip-path="url(#p6df8a09fbd)" style="fill: #dd8452"/>
   </g>
   <g id="patch_13">
    <path d="M 119.972116 71503.273882 
L 125.015736 71503.273882 
L 125.015736 53.145655 
L 119.972116 53.145655 
z
" clip-path="url(#p6df8a09fbd)" style="fill: #dd8452"/>
   </g>
   <g id="patch_14">
    <path d="M 125.015736 71503.273882 
L 130.059356 71503.273882 
L 130.059356 59.420641 
L 125.015736 59.420641 
z
" clip-path="url(#p6df8a09fbd)" style="fill: #dd8452"/>
   </g>
   <g id="patch_15">
    <path d="M 130.059356 71503.273882 
L 135.102976 71503.273882 
L 135.102976 69.593671 
L 130.059356 69.593671 
z
" clip-path="url(#p6df8a09fbd)" style="fill: #dd8452"/>
   </g>
   <g id="patch_16">
    <path d="M 135.102976 71503.273882 
L 140.146596 71503.273882 
L 140.146596 73.467557 
L 135.102976 73.467557 
z
" clip-path="url(#p6df8a09fbd)" style="fill: #dd8452"/>
   </g>
   <g id="patch_17">
    <path d="M 140.146596 71503.273882 
L 145.190216 71503.273882 
L 145.190216 83.72329 
L 140.146596 83.72329 
z
" clip-path="url(#p6df8a09fbd)" style="fill: #dd8452"/>
   </g>
   <g id="patch_18">
    <path d="M 145.190216 71503.273882 
L 150.233836 71503.273882 
L 150.233836 86.255986 
L 145.190216 86.255986 
z
" clip-path="url(#p6df8a09fbd)" style="fill: #dd8452"/>
   </g>
   <g id="patch_19">
    <path d="M 150.233836 71503.273882 
L 155.277456 71503.273882 
L 155.277456 92.333876 
L 150.233836 92.333876 
z
" clip-path="url(#p6df8a09fbd)" style="fill: #dd8452"/>
   </g>
   <g id="patch_20">
    <path d="M 155.277456 71503.273882 
L 160.321076 71503.273882 
L 160.321076 107.470368 
L 155.277456 107.470368 
z
" clip-path="url(#p6df8a09fbd)" style="fill: #dd8452"/>
   </g>
   <g id="patch_21">
    <path d="M 160.321076 71503.273882 
L 165.364696 71503.273882 
L 165.364696 117.505811 
L 160.321076 117.505811 
z
" clip-path="url(#p6df8a09fbd)" style="fill: #dd8452"/>
   </g>
   <g id="patch_22">
    <path d="M 165.364696 71503.273882 
L 170.408316 71503.273882 
L 170.408316 121.732918 
L 165.364696 121.732918 
z
" clip-path="url(#p6df8a09fbd)" style="fill: #dd8452"/>
   </g>
   <g id="patch_23">
    <path d="M 170.408316 71503.273882 
L 175.451936 71503.273882 
L 175.451936 126.630061 
L 170.408316 126.630061 
z
" clip-path="url(#p6df8a09fbd)" style="fill: #dd8452"/>
   </g>
   <g id="patch_24">
    <path d="M 175.451936 71503.273882 
L 180.495556 71503.273882 
L 180.495556 139.624828 
L 175.451936 139.624828 
z
" clip-path="url(#p6df8a09fbd)" style="fill: #dd8452"/>
   </g>
   <g id="patch_25">
    <path d="M 180.495556 71503.273882 
L 185.539176 71503.273882 
L 185.539176 165.403942 
L 180.495556 165.403942 
z
" clip-path="url(#p6df8a09fbd)" style="fill: #dd8452"/>
   </g>
   <g id="patch_26">
    <path d="M 185.539176 71503.273882 
L 190.582796 71503.273882 
L 190.582796 186.857327 
L 185.539176 186.857327 
z
" clip-path="url(#p6df8a09fbd)" style="fill: #dd8452"/>
   </g>
   <g id="patch_27">
    <path d="M 190.582796 71503.273882 
L 195.626416 71503.273882 
L 195.626416 152.854516 
L 190.582796 152.854516 
z
" clip-path="url(#p6df8a09fbd)" style="fill: #dd8452"/>
   </g>
   <g id="patch_28">
    <path d="M 195.626416 71503.273882 
L 200.670037 71503.273882 
L 200.670037 159.760964 
L 195.626416 159.760964 
z
" clip-path="url(#p6df8a09fbd)" style="fill: #dd8452"/>
   </g>
   <g id="patch_29">
    <path d="M 200.670037 71503.273882 
L 205.713657 71503.273882 
L 205.713657 181.214349 
L 200.670037 181.214349 
z
" clip-path="url(#p6df8a09fbd)" style="fill: #dd8452"/>
   </g>
   <g id="patch_30">
    <path d="M 205.713657 71503.273882 
L 210.757277 71503.273882 
L 210.757277 215.21716 
L 205.713657 215.21716 
z
" clip-path="url(#p6df8a09fbd)" style="fill: #dd8452"/>
   </g>
   <g id="patch_31">
    <path d="M 210.757277 71503.273882 
L 215.800897 71503.273882 
L 215.800897 236.670545 
L 210.757277 236.670545 
z
" clip-path="url(#p6df8a09fbd)" style="fill: #dd8452"/>
   </g>
   <g id="patch_32">
    <path d="M 215.800897 71503.273882 
L 220.844517 71503.273882 
L 220.844517 193.763775 
L 215.800897 193.763775 
z
" clip-path="url(#p6df8a09fbd)" style="fill: #dd8452"/>
   </g>
   <g id="patch_33">
    <path d="M 220.844517 71503.273882 
L 225.888137 71503.273882 
L 225.888137 71503.273882 
L 220.844517 71503.273882 
z
" clip-path="url(#p6df8a09fbd)" style="fill: #dd8452"/>
   </g>
   <g id="patch_34">
    <path d="M 225.888137 71503.273882 
L 230.931757 71503.273882 
L 230.931757 186.857327 
L 225.888137 186.857327 
z
" clip-path="url(#p6df8a09fbd)" style="fill: #dd8452"/>
   </g>
   <g id="patch_35">
    <path d="M 230.931757 71503.273882 
L 235.975377 71503.273882 
L 235.975377 172.31039 
L 230.931757 172.31039 
z
" clip-path="url(#p6df8a09fbd)" style="fill: #dd8452"/>
   </g>
   <g id="patch_36">
    <path d="M 235.975377 71503.273882 
L 241.018997 71503.273882 
L 241.018997 193.763775 
L 235.975377 193.763775 
z
" clip-path="url(#p6df8a09fbd)" style="fill: #dd8452"/>
   </g>
   <g id="patch_37">
    <path d="M 241.018997 71503.273882 
L 246.062617 71503.273882 
L 246.062617 193.763775 
L 241.018997 193.763775 
z
" clip-path="url(#p6df8a09fbd)" style="fill: #dd8452"/>
   </g>
   <g id="patch_38">
    <path d="M 246.062617 71503.273882 
L 251.106237 71503.273882 
L 251.106237 215.21716 
L 246.062617 215.21716 
z
" clip-path="url(#p6df8a09fbd)" style="fill: #dd8452"/>
   </g>
   <g id="patch_39">
    <path d="M 251.106237 71503.273882 
L 256.149857 71503.273882 
L 256.149857 193.763775 
L 251.106237 193.763775 
z
" clip-path="url(#p6df8a09fbd)" style="fill: #dd8452"/>
   </g>
   <g id="patch_40">
    <path d="M 256.149857 71503.273882 
L 261.193477 71503.273882 
L 261.193477 236.670545 
L 256.149857 236.670545 
z
" clip-path="url(#p6df8a09fbd)" style="fill: #dd8452"/>
   </g>
   <g id="patch_41">
    <path d="M 261.193477 71503.273882 
L 266.237097 71503.273882 
L 266.237097 193.763775 
L 261.193477 193.763775 
z
" clip-path="url(#p6df8a09fbd)" style="fill: #dd8452"/>
   </g>
   <g id="patch_42">
    <path d="M 266.237097 71503.273882 
L 271.280717 71503.273882 
L 271.280717 71503.273882 
L 266.237097 71503.273882 
z
" clip-path="url(#p6df8a09fbd)" style="fill: #dd8452"/>
   </g>
   <g id="patch_43">
    <path d="M 271.280717 71503.273882 
L 276.324337 71503.273882 
L 276.324337 71503.273882 
L 271.280717 71503.273882 
z
" clip-path="url(#p6df8a09fbd)" style="fill: #dd8452"/>
   </g>
   <g id="patch_44">
    <path d="M 276.324337 71503.273882 
L 281.367958 71503.273882 
L 281.367958 236.670545 
L 276.324337 236.670545 
z
" clip-path="url(#p6df8a09fbd)" style="fill: #dd8452"/>
   </g>
   <g id="patch_45">
    <path d="M 281.367958 71503.273882 
L 286.411578 71503.273882 
L 286.411578 71503.273882 
L 281.367958 71503.273882 
z
" clip-path="url(#p6df8a09fbd)" style="fill: #dd8452"/>
   </g>
   <g id="patch_46">
    <path d="M 286.411578 71503.273882 
L 291.455198 71503.273882 
L 291.455198 215.21716 
L 286.411578 215.21716 
z
" clip-path="url(#p6df8a09fbd)" style="fill: #dd8452"/>
   </g>
   <g id="patch_47">
    <path d="M 291.455198 71503.273882 
L 296.498818 71503.273882 
L 296.498818 193.763775 
L 291.455198 193.763775 
z
" clip-path="url(#p6df8a09fbd)" style="fill: #dd8452"/>
   </g>
   <g id="patch_48">
    <path d="M 296.498818 71503.273882 
L 301.542438 71503.273882 
L 301.542438 236.670545 
L 296.498818 236.670545 
z
" clip-path="url(#p6df8a09fbd)" style="fill: #dd8452"/>
   </g>
   <g id="patch_49">
    <path d="M 301.542438 71503.273882 
L 306.586058 71503.273882 
L 306.586058 215.21716 
L 301.542438 215.21716 
z
" clip-path="url(#p6df8a09fbd)" style="fill: #dd8452"/>
   </g>
   <g id="patch_50">
    <path d="M 306.586058 71503.273882 
L 311.629678 71503.273882 
L 311.629678 71503.273882 
L 306.586058 71503.273882 
z
" clip-path="url(#p6df8a09fbd)" style="fill: #dd8452"/>
   </g>
   <g id="patch_51">
    <path d="M 311.629678 71503.273882 
L 316.673298 71503.273882 
L 316.673298 202.667734 
L 311.629678 202.667734 
z
" clip-path="url(#p6df8a09fbd)" style="fill: #dd8452"/>
   </g>
   <g id="patch_52">
    <path d="M 316.673298 71503.273882 
L 321.716918 71503.273882 
L 321.716918 71503.273882 
L 316.673298 71503.273882 
z
" clip-path="url(#p6df8a09fbd)" style="fill: #dd8452"/>
   </g>
   <g id="patch_53">
    <path d="M 321.716918 71503.273882 
L 326.760538 71503.273882 
L 326.760538 236.670545 
L 321.716918 236.670545 
z
" clip-path="url(#p6df8a09fbd)" style="fill: #dd8452"/>
   </g>
   <g id="patch_54">
    <path d="M 326.760538 71503.273882 
L 331.804158 71503.273882 
L 331.804158 71503.273882 
L 326.760538 71503.273882 
z
" clip-path="url(#p6df8a09fbd)" style="fill: #dd8452"/>
   </g>
   <g id="patch_55">
    <path d="M 331.804158 71503.273882 
L 336.847778 71503.273882 
L 336.847778 236.670545 
L 331.804158 236.670545 
z
" clip-path="url(#p6df8a09fbd)" style="fill: #dd8452"/>
   </g>
   <g id="patch_56">
    <path d="M 336.847778 71503.273882 
L 341.891398 71503.273882 
L 341.891398 236.670545 
L 336.847778 236.670545 
z
" clip-path="url(#p6df8a09fbd)" style="fill: #dd8452"/>
   </g>
   <g id="patch_57">
    <path d="M 341.891398 71503.273882 
L 346.935018 71503.273882 
L 346.935018 193.763775 
L 341.891398 193.763775 
z
" clip-path="url(#p6df8a09fbd)" style="fill: #dd8452"/>
   </g>
   <g id="patch_58">
    <path d="M 346.935018 71503.273882 
L 351.978638 71503.273882 
L 351.978638 236.670545 
L 346.935018 236.670545 
z
" clip-path="url(#p6df8a09fbd)" style="fill: #dd8452"/>
   </g>
   <g id="patch_59">
    <path d="M 351.978638 71503.273882 
L 357.022258 71503.273882 
L 357.022258 71503.273882 
L 351.978638 71503.273882 
z
" clip-path="url(#p6df8a09fbd)" style="fill: #dd8452"/>
   </g>
   <g id="patch_60">
    <path d="M 357.022258 71503.273882 
L 362.065878 71503.273882 
L 362.065878 71503.273882 
L 357.022258 71503.273882 
z
" clip-path="url(#p6df8a09fbd)" style="fill: #dd8452"/>
   </g>
   <g id="patch_61">
    <path d="M 362.065878 71503.273882 
L 367.109499 71503.273882 
L 367.109499 71503.273882 
L 362.065878 71503.273882 
z
" clip-path="url(#p6df8a09fbd)" style="fill: #dd8452"/>
   </g>
   <g id="patch_62">
    <path d="M 367.109499 71503.273882 
L 372.153119 71503.273882 
L 372.153119 236.670545 
L 367.109499 236.670545 
z
" clip-path="url(#p6df8a09fbd)" style="fill: #dd8452"/>
   </g>
   <g id="patch_63">
    <path d="M 372.153119 71503.273882 
L 377.196739 71503.273882 
L 377.196739 71503.273882 
L 372.153119 71503.273882 
z
" clip-path="url(#p6df8a09fbd)" style="fill: #dd8452"/>
   </g>
   <g id="patch_64">
    <path d="M 377.196739 71503.273882 
L 382.240359 71503.273882 
L 382.240359 71503.273882 
L 377.196739 71503.273882 
z
" clip-path="url(#p6df8a09fbd)" style="fill: #dd8452"/>
   </g>
   <g id="patch_65">
    <path d="M 382.240359 71503.273882 
L 387.283979 71503.273882 
L 387.283979 71503.273882 
L 382.240359 71503.273882 
z
" clip-path="url(#p6df8a09fbd)" style="fill: #dd8452"/>
   </g>
   <g id="patch_66">
    <path d="M 387.283979 71503.273882 
L 392.327599 71503.273882 
L 392.327599 236.670545 
L 387.283979 236.670545 
z
" clip-path="url(#p6df8a09fbd)" style="fill: #dd8452"/>
   </g>
   <g id="patch_67">
    <path d="M 392.327599 71503.273882 
L 397.371219 71503.273882 
L 397.371219 71503.273882 
L 392.327599 71503.273882 
z
" clip-path="url(#p6df8a09fbd)" style="fill: #dd8452"/>
   </g>
   <g id="patch_68">
    <path d="M 397.371219 71503.273882 
L 402.414839 71503.273882 
L 402.414839 236.670545 
L 397.371219 236.670545 
z
" clip-path="url(#p6df8a09fbd)" style="fill: #dd8452"/>
   </g>
   <g id="patch_69">
    <path d="M 402.414839 71503.273882 
L 407.458459 71503.273882 
L 407.458459 71503.273882 
L 402.414839 71503.273882 
z
" clip-path="url(#p6df8a09fbd)" style="fill: #dd8452"/>
   </g>
   <g id="patch_70">
    <path d="M 407.458459 71503.273882 
L 412.502079 71503.273882 
L 412.502079 71503.273882 
L 407.458459 71503.273882 
z
" clip-path="url(#p6df8a09fbd)" style="fill: #dd8452"/>
   </g>
   <g id="patch_71">
    <path d="M 412.502079 71503.273882 
L 417.545699 71503.273882 
L 417.545699 71503.273882 
L 412.502079 71503.273882 
z
" clip-path="url(#p6df8a09fbd)" style="fill: #dd8452"/>
   </g>
   <g id="patch_72">
    <path d="M 417.545699 71503.273882 
L 422.589319 71503.273882 
L 422.589319 71503.273882 
L 417.545699 71503.273882 
z
" clip-path="url(#p6df8a09fbd)" style="fill: #dd8452"/>
   </g>
   <g id="patch_73">
    <path d="M 422.589319 71503.273882 
L 427.632939 71503.273882 
L 427.632939 71503.273882 
L 422.589319 71503.273882 
z
" clip-path="url(#p6df8a09fbd)" style="fill: #dd8452"/>
   </g>
   <g id="patch_74">
    <path d="M 427.632939 71503.273882 
L 432.676559 71503.273882 
L 432.676559 71503.273882 
L 427.632939 71503.273882 
z
" clip-path="url(#p6df8a09fbd)" style="fill: #dd8452"/>
   </g>
   <g id="patch_75">
    <path d="M 432.676559 71503.273882 
L 437.720179 71503.273882 
L 437.720179 71503.273882 
L 432.676559 71503.273882 
z
" clip-path="url(#p6df8a09fbd)" style="fill: #dd8452"/>
   </g>
   <g id="patch_76">
    <path d="M 437.720179 71503.273882 
L 442.763799 71503.273882 
L 442.763799 71503.273882 
L 437.720179 71503.273882 
z
" clip-path="url(#p6df8a09fbd)" style="fill: #dd8452"/>
   </g>
   <g id="patch_77">
    <path d="M 442.763799 71503.273882 
L 447.807419 71503.273882 
L 447.807419 71503.273882 
L 442.763799 71503.273882 
z
" clip-path="url(#p6df8a09fbd)" style="fill: #dd8452"/>
   </g>
   <g id="patch_78">
    <path d="M 447.807419 71503.273882 
L 452.85104 71503.273882 
L 452.85104 71503.273882 
L 447.807419 71503.273882 
z
" clip-path="url(#p6df8a09fbd)" style="fill: #dd8452"/>
   </g>
   <g id="patch_79">
    <path d="M 452.85104 71503.273882 
L 457.89466 71503.273882 
L 457.89466 236.670545 
L 452.85104 236.670545 
z
" clip-path="url(#p6df8a09fbd)" style="fill: #dd8452"/>
   </g>
   <g id="patch_80">
    <path d="M 457.89466 71503.273882 
L 462.93828 71503.273882 
L 462.93828 71503.273882 
L 457.89466 71503.273882 
z
" clip-path="url(#p6df8a09fbd)" style="fill: #dd8452"/>
   </g>
   <g id="patch_81">
    <path d="M 462.93828 71503.273882 
L 467.9819 71503.273882 
L 467.9819 71503.273882 
L 462.93828 71503.273882 
z
" clip-path="url(#p6df8a09fbd)" style="fill: #dd8452"/>
   </g>
   <g id="patch_82">
    <path d="M 467.9819 71503.273882 
L 473.02552 71503.273882 
L 473.02552 236.670545 
L 467.9819 236.670545 
z
" clip-path="url(#p6df8a09fbd)" style="fill: #dd8452"/>
   </g>
   <g id="matplotlib.axis_1">
    <g id="xtick_1">
     <g id="line2d_1">
      <defs>
       <path id="m3027188338" d="M 0 0 
L 0 3.5 
" style="stroke: #000000; stroke-width: 0.8"/>
      </defs>
      <g>
       <use xlink:href="#m3027188338" x="63.244051" y="246.04" style="stroke: #000000; stroke-width: 0.8"/>
      </g>
     </g>
     <g id="text_1">
      <!-- 1 -->
      <g transform="translate(60.062801 260.638438) scale(0.1 -0.1)">
       <defs>
        <path id="DejaVuSans-31" d="M 794 531 
L 1825 531 
L 1825 4091 
L 703 3866 
L 703 4441 
L 1819 4666 
L 2450 4666 
L 2450 531 
L 3481 531 
L 3481 0 
L 794 0 
L 794 531 
z
" transform="scale(0.015625)"/>
       </defs>
       <use xlink:href="#DejaVuSans-31"/>
      </g>
     </g>
    </g>
    <g id="xtick_2">
     <g id="line2d_2">
      <g>
       <use xlink:href="#m3027188338" x="119.699591" y="246.04" style="stroke: #000000; stroke-width: 0.8"/>
      </g>
     </g>
     <g id="text_2">
      <!-- 2 -->
      <g transform="translate(116.518341 260.638438) scale(0.1 -0.1)">
       <defs>
        <path id="DejaVuSans-32" d="M 1228 531 
L 3431 531 
L 3431 0 
L 469 0 
L 469 531 
Q 828 903 1448 1529 
Q 2069 2156 2228 2338 
Q 2531 2678 2651 2914 
Q 2772 3150 2772 3378 
Q 2772 3750 2511 3984 
Q 2250 4219 1831 4219 
Q 1534 4219 1204 4116 
Q 875 4013 500 3803 
L 500 4441 
Q 881 4594 1212 4672 
Q 1544 4750 1819 4750 
Q 2544 4750 2975 4387 
Q 3406 4025 3406 3419 
Q 3406 3131 3298 2873 
Q 3191 2616 2906 2266 
Q 2828 2175 2409 1742 
Q 1991 1309 1228 531 
z
" transform="scale(0.015625)"/>
       </defs>
       <use xlink:href="#DejaVuSans-32"/>
      </g>
     </g>
    </g>
    <g id="xtick_3">
     <g id="line2d_3">
      <g>
       <use xlink:href="#m3027188338" x="176.15513" y="246.04" style="stroke: #000000; stroke-width: 0.8"/>
      </g>
     </g>
     <g id="text_3">
      <!-- 3 -->
      <g transform="translate(172.97388 260.638438) scale(0.1 -0.1)">
       <defs>
        <path id="DejaVuSans-33" d="M 2597 2516 
Q 3050 2419 3304 2112 
Q 3559 1806 3559 1356 
Q 3559 666 3084 287 
Q 2609 -91 1734 -91 
Q 1441 -91 1130 -33 
Q 819 25 488 141 
L 488 750 
Q 750 597 1062 519 
Q 1375 441 1716 441 
Q 2309 441 2620 675 
Q 2931 909 2931 1356 
Q 2931 1769 2642 2001 
Q 2353 2234 1838 2234 
L 1294 2234 
L 1294 2753 
L 1863 2753 
Q 2328 2753 2575 2939 
Q 2822 3125 2822 3475 
Q 2822 3834 2567 4026 
Q 2313 4219 1838 4219 
Q 1578 4219 1281 4162 
Q 984 4106 628 3988 
L 628 4550 
Q 988 4650 1302 4700 
Q 1616 4750 1894 4750 
Q 2613 4750 3031 4423 
Q 3450 4097 3450 3541 
Q 3450 3153 3228 2886 
Q 3006 2619 2597 2516 
z
" transform="scale(0.015625)"/>
       </defs>
       <use xlink:href="#DejaVuSans-33"/>
      </g>
     </g>
    </g>
    <g id="xtick_4">
     <g id="line2d_4">
      <g>
       <use xlink:href="#m3027188338" x="232.610669" y="246.04" style="stroke: #000000; stroke-width: 0.8"/>
      </g>
     </g>
     <g id="text_4">
      <!-- 4 -->
      <g transform="translate(229.429419 260.638438) scale(0.1 -0.1)">
       <defs>
        <path id="DejaVuSans-34" d="M 2419 4116 
L 825 1625 
L 2419 1625 
L 2419 4116 
z
M 2253 4666 
L 3047 4666 
L 3047 1625 
L 3713 1625 
L 3713 1100 
L 3047 1100 
L 3047 0 
L 2419 0 
L 2419 1100 
L 313 1100 
L 313 1709 
L 2253 4666 
z
" transform="scale(0.015625)"/>
       </defs>
       <use xlink:href="#DejaVuSans-34"/>
      </g>
     </g>
    </g>
    <g id="xtick_5">
     <g id="line2d_5">
      <g>
       <use xlink:href="#m3027188338" x="289.066209" y="246.04" style="stroke: #000000; stroke-width: 0.8"/>
      </g>
     </g>
     <g id="text_5">
      <!-- 5 -->
      <g transform="translate(285.884959 260.638438) scale(0.1 -0.1)">
       <defs>
        <path id="DejaVuSans-35" d="M 691 4666 
L 3169 4666 
L 3169 4134 
L 1269 4134 
L 1269 2991 
Q 1406 3038 1543 3061 
Q 1681 3084 1819 3084 
Q 2600 3084 3056 2656 
Q 3513 2228 3513 1497 
Q 3513 744 3044 326 
Q 2575 -91 1722 -91 
Q 1428 -91 1123 -41 
Q 819 9 494 109 
L 494 744 
Q 775 591 1075 516 
Q 1375 441 1709 441 
Q 2250 441 2565 725 
Q 2881 1009 2881 1497 
Q 2881 1984 2565 2268 
Q 2250 2553 1709 2553 
Q 1456 2553 1204 2497 
Q 953 2441 691 2322 
L 691 4666 
z
" transform="scale(0.015625)"/>
       </defs>
       <use xlink:href="#DejaVuSans-35"/>
      </g>
     </g>
    </g>
    <g id="xtick_6">
     <g id="line2d_6">
      <g>
       <use xlink:href="#m3027188338" x="345.521748" y="246.04" style="stroke: #000000; stroke-width: 0.8"/>
      </g>
     </g>
     <g id="text_6">
      <!-- 6 -->
      <g transform="translate(342.340498 260.638438) scale(0.1 -0.1)">
       <defs>
        <path id="DejaVuSans-36" d="M 2113 2584 
Q 1688 2584 1439 2293 
Q 1191 2003 1191 1497 
Q 1191 994 1439 701 
Q 1688 409 2113 409 
Q 2538 409 2786 701 
Q 3034 994 3034 1497 
Q 3034 2003 2786 2293 
Q 2538 2584 2113 2584 
z
M 3366 4563 
L 3366 3988 
Q 3128 4100 2886 4159 
Q 2644 4219 2406 4219 
Q 1781 4219 1451 3797 
Q 1122 3375 1075 2522 
Q 1259 2794 1537 2939 
Q 1816 3084 2150 3084 
Q 2853 3084 3261 2657 
Q 3669 2231 3669 1497 
Q 3669 778 3244 343 
Q 2819 -91 2113 -91 
Q 1303 -91 875 529 
Q 447 1150 447 2328 
Q 447 3434 972 4092 
Q 1497 4750 2381 4750 
Q 2619 4750 2861 4703 
Q 3103 4656 3366 4563 
z
" transform="scale(0.015625)"/>
       </defs>
       <use xlink:href="#DejaVuSans-36"/>
      </g>
     </g>
    </g>
    <g id="xtick_7">
     <g id="line2d_7">
      <g>
       <use xlink:href="#m3027188338" x="401.977287" y="246.04" style="stroke: #000000; stroke-width: 0.8"/>
      </g>
     </g>
     <g id="text_7">
      <!-- 7 -->
      <g transform="translate(398.796037 260.638438) scale(0.1 -0.1)">
       <defs>
        <path id="DejaVuSans-37" d="M 525 4666 
L 3525 4666 
L 3525 4397 
L 1831 0 
L 1172 0 
L 2766 4134 
L 525 4134 
L 525 4666 
z
" transform="scale(0.015625)"/>
       </defs>
       <use xlink:href="#DejaVuSans-37"/>
      </g>
     </g>
    </g>
    <g id="xtick_8">
     <g id="line2d_8">
      <g>
       <use xlink:href="#m3027188338" x="458.432827" y="246.04" style="stroke: #000000; stroke-width: 0.8"/>
      </g>
     </g>
     <g id="text_8">
      <!-- 8 -->
      <g transform="translate(455.251577 260.638438) scale(0.1 -0.1)">
       <defs>
        <path id="DejaVuSans-38" d="M 2034 2216 
Q 1584 2216 1326 1975 
Q 1069 1734 1069 1313 
Q 1069 891 1326 650 
Q 1584 409 2034 409 
Q 2484 409 2743 651 
Q 3003 894 3003 1313 
Q 3003 1734 2745 1975 
Q 2488 2216 2034 2216 
z
M 1403 2484 
Q 997 2584 770 2862 
Q 544 3141 544 3541 
Q 544 4100 942 4425 
Q 1341 4750 2034 4750 
Q 2731 4750 3128 4425 
Q 3525 4100 3525 3541 
Q 3525 3141 3298 2862 
Q 3072 2584 2669 2484 
Q 3125 2378 3379 2068 
Q 3634 1759 3634 1313 
Q 3634 634 3220 271 
Q 2806 -91 2034 -91 
Q 1263 -91 848 271 
Q 434 634 434 1313 
Q 434 1759 690 2068 
Q 947 2378 1403 2484 
z
M 1172 3481 
Q 1172 3119 1398 2916 
Q 1625 2713 2034 2713 
Q 2441 2713 2670 2916 
Q 2900 3119 2900 3481 
Q 2900 3844 2670 4047 
Q 2441 4250 2034 4250 
Q 1625 4250 1398 4047 
Q 1172 3844 1172 3481 
z
" transform="scale(0.015625)"/>
       </defs>
       <use xlink:href="#DejaVuSans-38"/>
      </g>
     </g>
    </g>
    <g id="text_9">
     <!-- distance to k nearest neighbours -->
     <g transform="translate(188.889311 274.316562) scale(0.1 -0.1)">
      <defs>
       <path id="DejaVuSans-64" d="M 2906 2969 
L 2906 4863 
L 3481 4863 
L 3481 0 
L 2906 0 
L 2906 525 
Q 2725 213 2448 61 
Q 2172 -91 1784 -91 
Q 1150 -91 751 415 
Q 353 922 353 1747 
Q 353 2572 751 3078 
Q 1150 3584 1784 3584 
Q 2172 3584 2448 3432 
Q 2725 3281 2906 2969 
z
M 947 1747 
Q 947 1113 1208 752 
Q 1469 391 1925 391 
Q 2381 391 2643 752 
Q 2906 1113 2906 1747 
Q 2906 2381 2643 2742 
Q 2381 3103 1925 3103 
Q 1469 3103 1208 2742 
Q 947 2381 947 1747 
z
" transform="scale(0.015625)"/>
       <path id="DejaVuSans-69" d="M 603 3500 
L 1178 3500 
L 1178 0 
L 603 0 
L 603 3500 
z
M 603 4863 
L 1178 4863 
L 1178 4134 
L 603 4134 
L 603 4863 
z
" transform="scale(0.015625)"/>
       <path id="DejaVuSans-73" d="M 2834 3397 
L 2834 2853 
Q 2591 2978 2328 3040 
Q 2066 3103 1784 3103 
Q 1356 3103 1142 2972 
Q 928 2841 928 2578 
Q 928 2378 1081 2264 
Q 1234 2150 1697 2047 
L 1894 2003 
Q 2506 1872 2764 1633 
Q 3022 1394 3022 966 
Q 3022 478 2636 193 
Q 2250 -91 1575 -91 
Q 1294 -91 989 -36 
Q 684 19 347 128 
L 347 722 
Q 666 556 975 473 
Q 1284 391 1588 391 
Q 1994 391 2212 530 
Q 2431 669 2431 922 
Q 2431 1156 2273 1281 
Q 2116 1406 1581 1522 
L 1381 1569 
Q 847 1681 609 1914 
Q 372 2147 372 2553 
Q 372 3047 722 3315 
Q 1072 3584 1716 3584 
Q 2034 3584 2315 3537 
Q 2597 3491 2834 3397 
z
" transform="scale(0.015625)"/>
       <path id="DejaVuSans-74" d="M 1172 4494 
L 1172 3500 
L 2356 3500 
L 2356 3053 
L 1172 3053 
L 1172 1153 
Q 1172 725 1289 603 
Q 1406 481 1766 481 
L 2356 481 
L 2356 0 
L 1766 0 
Q 1100 0 847 248 
Q 594 497 594 1153 
L 594 3053 
L 172 3053 
L 172 3500 
L 594 3500 
L 594 4494 
L 1172 4494 
z
" transform="scale(0.015625)"/>
       <path id="DejaVuSans-61" d="M 2194 1759 
Q 1497 1759 1228 1600 
Q 959 1441 959 1056 
Q 959 750 1161 570 
Q 1363 391 1709 391 
Q 2188 391 2477 730 
Q 2766 1069 2766 1631 
L 2766 1759 
L 2194 1759 
z
M 3341 1997 
L 3341 0 
L 2766 0 
L 2766 531 
Q 2569 213 2275 61 
Q 1981 -91 1556 -91 
Q 1019 -91 701 211 
Q 384 513 384 1019 
Q 384 1609 779 1909 
Q 1175 2209 1959 2209 
L 2766 2209 
L 2766 2266 
Q 2766 2663 2505 2880 
Q 2244 3097 1772 3097 
Q 1472 3097 1187 3025 
Q 903 2953 641 2809 
L 641 3341 
Q 956 3463 1253 3523 
Q 1550 3584 1831 3584 
Q 2591 3584 2966 3190 
Q 3341 2797 3341 1997 
z
" transform="scale(0.015625)"/>
       <path id="DejaVuSans-6e" d="M 3513 2113 
L 3513 0 
L 2938 0 
L 2938 2094 
Q 2938 2591 2744 2837 
Q 2550 3084 2163 3084 
Q 1697 3084 1428 2787 
Q 1159 2491 1159 1978 
L 1159 0 
L 581 0 
L 581 3500 
L 1159 3500 
L 1159 2956 
Q 1366 3272 1645 3428 
Q 1925 3584 2291 3584 
Q 2894 3584 3203 3211 
Q 3513 2838 3513 2113 
z
" transform="scale(0.015625)"/>
       <path id="DejaVuSans-63" d="M 3122 3366 
L 3122 2828 
Q 2878 2963 2633 3030 
Q 2388 3097 2138 3097 
Q 1578 3097 1268 2742 
Q 959 2388 959 1747 
Q 959 1106 1268 751 
Q 1578 397 2138 397 
Q 2388 397 2633 464 
Q 2878 531 3122 666 
L 3122 134 
Q 2881 22 2623 -34 
Q 2366 -91 2075 -91 
Q 1284 -91 818 406 
Q 353 903 353 1747 
Q 353 2603 823 3093 
Q 1294 3584 2113 3584 
Q 2378 3584 2631 3529 
Q 2884 3475 3122 3366 
z
" transform="scale(0.015625)"/>
       <path id="DejaVuSans-65" d="M 3597 1894 
L 3597 1613 
L 953 1613 
Q 991 1019 1311 708 
Q 1631 397 2203 397 
Q 2534 397 2845 478 
Q 3156 559 3463 722 
L 3463 178 
Q 3153 47 2828 -22 
Q 2503 -91 2169 -91 
Q 1331 -91 842 396 
Q 353 884 353 1716 
Q 353 2575 817 3079 
Q 1281 3584 2069 3584 
Q 2775 3584 3186 3129 
Q 3597 2675 3597 1894 
z
M 3022 2063 
Q 3016 2534 2758 2815 
Q 2500 3097 2075 3097 
Q 1594 3097 1305 2825 
Q 1016 2553 972 2059 
L 3022 2063 
z
" transform="scale(0.015625)"/>
       <path id="DejaVuSans-20" transform="scale(0.015625)"/>
       <path id="DejaVuSans-6f" d="M 1959 3097 
Q 1497 3097 1228 2736 
Q 959 2375 959 1747 
Q 959 1119 1226 758 
Q 1494 397 1959 397 
Q 2419 397 2687 759 
Q 2956 1122 2956 1747 
Q 2956 2369 2687 2733 
Q 2419 3097 1959 3097 
z
M 1959 3584 
Q 2709 3584 3137 3096 
Q 3566 2609 3566 1747 
Q 3566 888 3137 398 
Q 2709 -91 1959 -91 
Q 1206 -91 779 398 
Q 353 888 353 1747 
Q 353 2609 779 3096 
Q 1206 3584 1959 3584 
z
" transform="scale(0.015625)"/>
       <path id="DejaVuSans-6b" d="M 581 4863 
L 1159 4863 
L 1159 1991 
L 2875 3500 
L 3609 3500 
L 1753 1863 
L 3688 0 
L 2938 0 
L 1159 1709 
L 1159 0 
L 581 0 
L 581 4863 
z
" transform="scale(0.015625)"/>
       <path id="DejaVuSans-72" d="M 2631 2963 
Q 2534 3019 2420 3045 
Q 2306 3072 2169 3072 
Q 1681 3072 1420 2755 
Q 1159 2438 1159 1844 
L 1159 0 
L 581 0 
L 581 3500 
L 1159 3500 
L 1159 2956 
Q 1341 3275 1631 3429 
Q 1922 3584 2338 3584 
Q 2397 3584 2469 3576 
Q 2541 3569 2628 3553 
L 2631 2963 
z
" transform="scale(0.015625)"/>
       <path id="DejaVuSans-67" d="M 2906 1791 
Q 2906 2416 2648 2759 
Q 2391 3103 1925 3103 
Q 1463 3103 1205 2759 
Q 947 2416 947 1791 
Q 947 1169 1205 825 
Q 1463 481 1925 481 
Q 2391 481 2648 825 
Q 2906 1169 2906 1791 
z
M 3481 434 
Q 3481 -459 3084 -895 
Q 2688 -1331 1869 -1331 
Q 1566 -1331 1297 -1286 
Q 1028 -1241 775 -1147 
L 775 -588 
Q 1028 -725 1275 -790 
Q 1522 -856 1778 -856 
Q 2344 -856 2625 -561 
Q 2906 -266 2906 331 
L 2906 616 
Q 2728 306 2450 153 
Q 2172 0 1784 0 
Q 1141 0 747 490 
Q 353 981 353 1791 
Q 353 2603 747 3093 
Q 1141 3584 1784 3584 
Q 2172 3584 2450 3431 
Q 2728 3278 2906 2969 
L 2906 3500 
L 3481 3500 
L 3481 434 
z
" transform="scale(0.015625)"/>
       <path id="DejaVuSans-68" d="M 3513 2113 
L 3513 0 
L 2938 0 
L 2938 2094 
Q 2938 2591 2744 2837 
Q 2550 3084 2163 3084 
Q 1697 3084 1428 2787 
Q 1159 2491 1159 1978 
L 1159 0 
L 581 0 
L 581 4863 
L 1159 4863 
L 1159 2956 
Q 1366 3272 1645 3428 
Q 1925 3584 2291 3584 
Q 2894 3584 3203 3211 
Q 3513 2838 3513 2113 
z
" transform="scale(0.015625)"/>
       <path id="DejaVuSans-62" d="M 3116 1747 
Q 3116 2381 2855 2742 
Q 2594 3103 2138 3103 
Q 1681 3103 1420 2742 
Q 1159 2381 1159 1747 
Q 1159 1113 1420 752 
Q 1681 391 2138 391 
Q 2594 391 2855 752 
Q 3116 1113 3116 1747 
z
M 1159 2969 
Q 1341 3281 1617 3432 
Q 1894 3584 2278 3584 
Q 2916 3584 3314 3078 
Q 3713 2572 3713 1747 
Q 3713 922 3314 415 
Q 2916 -91 2278 -91 
Q 1894 -91 1617 61 
Q 1341 213 1159 525 
L 1159 0 
L 581 0 
L 581 4863 
L 1159 4863 
L 1159 2969 
z
" transform="scale(0.015625)"/>
       <path id="DejaVuSans-75" d="M 544 1381 
L 544 3500 
L 1119 3500 
L 1119 1403 
Q 1119 906 1312 657 
Q 1506 409 1894 409 
Q 2359 409 2629 706 
Q 2900 1003 2900 1516 
L 2900 3500 
L 3475 3500 
L 3475 0 
L 2900 0 
L 2900 538 
Q 2691 219 2414 64 
Q 2138 -91 1772 -91 
Q 1169 -91 856 284 
Q 544 659 544 1381 
z
M 1991 3584 
L 1991 3584 
z
" transform="scale(0.015625)"/>
      </defs>
      <use xlink:href="#DejaVuSans-64"/>
      <use xlink:href="#DejaVuSans-69" transform="translate(63.476562 0)"/>
      <use xlink:href="#DejaVuSans-73" transform="translate(91.259766 0)"/>
      <use xlink:href="#DejaVuSans-74" transform="translate(143.359375 0)"/>
      <use xlink:href="#DejaVuSans-61" transform="translate(182.568359 0)"/>
      <use xlink:href="#DejaVuSans-6e" transform="translate(243.847656 0)"/>
      <use xlink:href="#DejaVuSans-63" transform="translate(307.226562 0)"/>
      <use xlink:href="#DejaVuSans-65" transform="translate(362.207031 0)"/>
      <use xlink:href="#DejaVuSans-20" transform="translate(423.730469 0)"/>
      <use xlink:href="#DejaVuSans-74" transform="translate(455.517578 0)"/>
      <use xlink:href="#DejaVuSans-6f" transform="translate(494.726562 0)"/>
      <use xlink:href="#DejaVuSans-20" transform="translate(555.908203 0)"/>
      <use xlink:href="#DejaVuSans-6b" transform="translate(587.695312 0)"/>
      <use xlink:href="#DejaVuSans-20" transform="translate(645.605469 0)"/>
      <use xlink:href="#DejaVuSans-6e" transform="translate(677.392578 0)"/>
      <use xlink:href="#DejaVuSans-65" transform="translate(740.771484 0)"/>
      <use xlink:href="#DejaVuSans-61" transform="translate(802.294922 0)"/>
      <use xlink:href="#DejaVuSans-72" transform="translate(863.574219 0)"/>
      <use xlink:href="#DejaVuSans-65" transform="translate(902.4375 0)"/>
      <use xlink:href="#DejaVuSans-73" transform="translate(963.960938 0)"/>
      <use xlink:href="#DejaVuSans-74" transform="translate(1016.060547 0)"/>
      <use xlink:href="#DejaVuSans-20" transform="translate(1055.269531 0)"/>
      <use xlink:href="#DejaVuSans-6e" transform="translate(1087.056641 0)"/>
      <use xlink:href="#DejaVuSans-65" transform="translate(1150.435547 0)"/>
      <use xlink:href="#DejaVuSans-69" transform="translate(1211.958984 0)"/>
      <use xlink:href="#DejaVuSans-67" transform="translate(1239.742188 0)"/>
      <use xlink:href="#DejaVuSans-68" transform="translate(1303.21875 0)"/>
      <use xlink:href="#DejaVuSans-62" transform="translate(1366.597656 0)"/>
      <use xlink:href="#DejaVuSans-6f" transform="translate(1430.074219 0)"/>
      <use xlink:href="#DejaVuSans-75" transform="translate(1491.255859 0)"/>
      <use xlink:href="#DejaVuSans-72" transform="translate(1554.634766 0)"/>
      <use xlink:href="#DejaVuSans-73" transform="translate(1595.748047 0)"/>
     </g>
    </g>
   </g>
   <g id="matplotlib.axis_2">
    <g id="ytick_1">
     <g id="line2d_9">
      <defs>
       <path id="m0f704545f7" d="M 0 0 
L -3.5 0 
" style="stroke: #000000; stroke-width: 0.8"/>
      </defs>
      <g>
       <use xlink:href="#m0f704545f7" x="49.361435" y="236.670545" style="stroke: #000000; stroke-width: 0.8"/>
      </g>
     </g>
     <g id="text_10">
      <!-- $\mathdefault{10^{0}}$ -->
      <g transform="translate(24.761435 240.469764) scale(0.1 -0.1)">
       <defs>
        <path id="DejaVuSans-30" d="M 2034 4250 
Q 1547 4250 1301 3770 
Q 1056 3291 1056 2328 
Q 1056 1369 1301 889 
Q 1547 409 2034 409 
Q 2525 409 2770 889 
Q 3016 1369 3016 2328 
Q 3016 3291 2770 3770 
Q 2525 4250 2034 4250 
z
M 2034 4750 
Q 2819 4750 3233 4129 
Q 3647 3509 3647 2328 
Q 3647 1150 3233 529 
Q 2819 -91 2034 -91 
Q 1250 -91 836 529 
Q 422 1150 422 2328 
Q 422 3509 836 4129 
Q 1250 4750 2034 4750 
z
" transform="scale(0.015625)"/>
       </defs>
       <use xlink:href="#DejaVuSans-31" transform="translate(0 0.765625)"/>
       <use xlink:href="#DejaVuSans-30" transform="translate(63.623047 0.765625)"/>
       <use xlink:href="#DejaVuSans-30" transform="translate(128.203125 39.046875) scale(0.7)"/>
      </g>
     </g>
    </g>
    <g id="ytick_2">
     <g id="line2d_10">
      <g>
       <use xlink:href="#m0f704545f7" x="49.361435" y="165.403942" style="stroke: #000000; stroke-width: 0.8"/>
      </g>
     </g>
     <g id="text_11">
      <!-- $\mathdefault{10^{1}}$ -->
      <g transform="translate(24.761435 169.203161) scale(0.1 -0.1)">
       <use xlink:href="#DejaVuSans-31" transform="translate(0 0.684375)"/>
       <use xlink:href="#DejaVuSans-30" transform="translate(63.623047 0.684375)"/>
       <use xlink:href="#DejaVuSans-31" transform="translate(128.203125 38.965625) scale(0.7)"/>
      </g>
     </g>
    </g>
    <g id="ytick_3">
     <g id="line2d_11">
      <g>
       <use xlink:href="#m0f704545f7" x="49.361435" y="94.137339" style="stroke: #000000; stroke-width: 0.8"/>
      </g>
     </g>
     <g id="text_12">
      <!-- $\mathdefault{10^{2}}$ -->
      <g transform="translate(24.761435 97.936558) scale(0.1 -0.1)">
       <use xlink:href="#DejaVuSans-31" transform="translate(0 0.765625)"/>
       <use xlink:href="#DejaVuSans-30" transform="translate(63.623047 0.765625)"/>
       <use xlink:href="#DejaVuSans-32" transform="translate(128.203125 39.046875) scale(0.7)"/>
      </g>
     </g>
    </g>
    <g id="ytick_4">
     <g id="line2d_12">
      <defs>
       <path id="m693d5edba3" d="M 0 0 
L -2 0 
" style="stroke: #000000; stroke-width: 0.6"/>
      </defs>
      <g>
       <use xlink:href="#m693d5edba3" x="49.361435" y="243.576993" style="stroke: #000000; stroke-width: 0.6"/>
      </g>
     </g>
    </g>
    <g id="ytick_5">
     <g id="line2d_13">
      <g>
       <use xlink:href="#m693d5edba3" x="49.361435" y="239.931526" style="stroke: #000000; stroke-width: 0.6"/>
      </g>
     </g>
    </g>
    <g id="ytick_6">
     <g id="line2d_14">
      <g>
       <use xlink:href="#m693d5edba3" x="49.361435" y="215.21716" style="stroke: #000000; stroke-width: 0.6"/>
      </g>
     </g>
    </g>
    <g id="ytick_7">
     <g id="line2d_15">
      <g>
       <use xlink:href="#m693d5edba3" x="49.361435" y="202.667734" style="stroke: #000000; stroke-width: 0.6"/>
      </g>
     </g>
    </g>
    <g id="ytick_8">
     <g id="line2d_16">
      <g>
       <use xlink:href="#m693d5edba3" x="49.361435" y="193.763775" style="stroke: #000000; stroke-width: 0.6"/>
      </g>
     </g>
    </g>
    <g id="ytick_9">
     <g id="line2d_17">
      <g>
       <use xlink:href="#m693d5edba3" x="49.361435" y="186.857327" style="stroke: #000000; stroke-width: 0.6"/>
      </g>
     </g>
    </g>
    <g id="ytick_10">
     <g id="line2d_18">
      <g>
       <use xlink:href="#m693d5edba3" x="49.361435" y="181.214349" style="stroke: #000000; stroke-width: 0.6"/>
      </g>
     </g>
    </g>
    <g id="ytick_11">
     <g id="line2d_19">
      <g>
       <use xlink:href="#m693d5edba3" x="49.361435" y="176.443279" style="stroke: #000000; stroke-width: 0.6"/>
      </g>
     </g>
    </g>
    <g id="ytick_12">
     <g id="line2d_20">
      <g>
       <use xlink:href="#m693d5edba3" x="49.361435" y="172.31039" style="stroke: #000000; stroke-width: 0.6"/>
      </g>
     </g>
    </g>
    <g id="ytick_13">
     <g id="line2d_21">
      <g>
       <use xlink:href="#m693d5edba3" x="49.361435" y="168.664923" style="stroke: #000000; stroke-width: 0.6"/>
      </g>
     </g>
    </g>
    <g id="ytick_14">
     <g id="line2d_22">
      <g>
       <use xlink:href="#m693d5edba3" x="49.361435" y="143.950557" style="stroke: #000000; stroke-width: 0.6"/>
      </g>
     </g>
    </g>
    <g id="ytick_15">
     <g id="line2d_23">
      <g>
       <use xlink:href="#m693d5edba3" x="49.361435" y="131.401131" style="stroke: #000000; stroke-width: 0.6"/>
      </g>
     </g>
    </g>
    <g id="ytick_16">
     <g id="line2d_24">
      <g>
       <use xlink:href="#m693d5edba3" x="49.361435" y="122.497172" style="stroke: #000000; stroke-width: 0.6"/>
      </g>
     </g>
    </g>
    <g id="ytick_17">
     <g id="line2d_25">
      <g>
       <use xlink:href="#m693d5edba3" x="49.361435" y="115.590724" style="stroke: #000000; stroke-width: 0.6"/>
      </g>
     </g>
    </g>
    <g id="ytick_18">
     <g id="line2d_26">
      <g>
       <use xlink:href="#m693d5edba3" x="49.361435" y="109.947746" style="stroke: #000000; stroke-width: 0.6"/>
      </g>
     </g>
    </g>
    <g id="ytick_19">
     <g id="line2d_27">
      <g>
       <use xlink:href="#m693d5edba3" x="49.361435" y="105.176675" style="stroke: #000000; stroke-width: 0.6"/>
      </g>
     </g>
    </g>
    <g id="ytick_20">
     <g id="line2d_28">
      <g>
       <use xlink:href="#m693d5edba3" x="49.361435" y="101.043786" style="stroke: #000000; stroke-width: 0.6"/>
      </g>
     </g>
    </g>
    <g id="ytick_21">
     <g id="line2d_29">
      <g>
       <use xlink:href="#m693d5edba3" x="49.361435" y="97.39832" style="stroke: #000000; stroke-width: 0.6"/>
      </g>
     </g>
    </g>
    <g id="ytick_22">
     <g id="line2d_30">
      <g>
       <use xlink:href="#m693d5edba3" x="49.361435" y="72.683953" style="stroke: #000000; stroke-width: 0.6"/>
      </g>
     </g>
    </g>
    <g id="ytick_23">
     <g id="line2d_31">
      <g>
       <use xlink:href="#m693d5edba3" x="49.361435" y="60.134528" style="stroke: #000000; stroke-width: 0.6"/>
      </g>
     </g>
    </g>
    <g id="ytick_24">
     <g id="line2d_32">
      <g>
       <use xlink:href="#m693d5edba3" x="49.361435" y="51.230568" style="stroke: #000000; stroke-width: 0.6"/>
      </g>
     </g>
    </g>
    <g id="ytick_25">
     <g id="line2d_33">
      <g>
       <use xlink:href="#m693d5edba3" x="49.361435" y="44.324121" style="stroke: #000000; stroke-width: 0.6"/>
      </g>
     </g>
    </g>
    <g id="text_13">
     <!-- count (log) -->
     <g transform="translate(18.681747 170.195531) rotate(-90) scale(0.1 -0.1)">
      <defs>
       <path id="DejaVuSans-28" d="M 1984 4856 
Q 1566 4138 1362 3434 
Q 1159 2731 1159 2009 
Q 1159 1288 1364 580 
Q 1569 -128 1984 -844 
L 1484 -844 
Q 1016 -109 783 600 
Q 550 1309 550 2009 
Q 550 2706 781 3412 
Q 1013 4119 1484 4856 
L 1984 4856 
z
" transform="scale(0.015625)"/>
       <path id="DejaVuSans-6c" d="M 603 4863 
L 1178 4863 
L 1178 0 
L 603 0 
L 603 4863 
z
" transform="scale(0.015625)"/>
       <path id="DejaVuSans-29" d="M 513 4856 
L 1013 4856 
Q 1481 4119 1714 3412 
Q 1947 2706 1947 2009 
Q 1947 1309 1714 600 
Q 1481 -109 1013 -844 
L 513 -844 
Q 928 -128 1133 580 
Q 1338 1288 1338 2009 
Q 1338 2731 1133 3434 
Q 928 4138 513 4856 
z
" transform="scale(0.015625)"/>
      </defs>
      <use xlink:href="#DejaVuSans-63"/>
      <use xlink:href="#DejaVuSans-6f" transform="translate(54.980469 0)"/>
      <use xlink:href="#DejaVuSans-75" transform="translate(116.162109 0)"/>
      <use xlink:href="#DejaVuSans-6e" transform="translate(179.541016 0)"/>
      <use xlink:href="#DejaVuSans-74" transform="translate(242.919922 0)"/>
      <use xlink:href="#DejaVuSans-20" transform="translate(282.128906 0)"/>
      <use xlink:href="#DejaVuSans-28" transform="translate(313.916016 0)"/>
      <use xlink:href="#DejaVuSans-6c" transform="translate(352.929688 0)"/>
      <use xlink:href="#DejaVuSans-6f" transform="translate(380.712891 0)"/>
      <use xlink:href="#DejaVuSans-67" transform="translate(441.894531 0)"/>
      <use xlink:href="#DejaVuSans-29" transform="translate(505.371094 0)"/>
     </g>
    </g>
   </g>
   <g id="patch_83">
    <path d="M 49.361435 246.04 
L 49.361435 39.912 
" style="fill: none; stroke: #000000; stroke-width: 0.8; stroke-linejoin: miter; stroke-linecap: square"/>
   </g>
   <g id="patch_84">
    <path d="M 493.2 246.04 
L 493.2 39.912 
" style="fill: none; stroke: #000000; stroke-width: 0.8; stroke-linejoin: miter; stroke-linecap: square"/>
   </g>
   <g id="patch_85">
    <path d="M 49.361435 246.04 
L 493.2 246.04 
" style="fill: none; stroke: #000000; stroke-width: 0.8; stroke-linejoin: miter; stroke-linecap: square"/>
   </g>
   <g id="patch_86">
    <path d="M 49.361435 39.912 
L 493.2 39.912 
" style="fill: none; stroke: #000000; stroke-width: 0.8; stroke-linejoin: miter; stroke-linecap: square"/>
   </g>
   <g id="text_14">
    <!-- k-NN distance distribution (Wasserstein, Option 4) -->
    <g transform="translate(120.80728 20.411625) scale(0.12 -0.12)">
     <defs>
      <path id="DejaVuSans-2d" d="M 313 2009 
L 1997 2009 
L 1997 1497 
L 313 1497 
L 313 2009 
z
" transform="scale(0.015625)"/>
      <path id="DejaVuSans-4e" d="M 628 4666 
L 1478 4666 
L 3547 763 
L 3547 4666 
L 4159 4666 
L 4159 0 
L 3309 0 
L 1241 3903 
L 1241 0 
L 628 0 
L 628 4666 
z
" transform="scale(0.015625)"/>
      <path id="DejaVuSans-57" d="M 213 4666 
L 850 4666 
L 1831 722 
L 2809 4666 
L 3519 4666 
L 4500 722 
L 5478 4666 
L 6119 4666 
L 4947 0 
L 4153 0 
L 3169 4050 
L 2175 0 
L 1381 0 
L 213 4666 
z
" transform="scale(0.015625)"/>
      <path id="DejaVuSans-2c" d="M 750 794 
L 1409 794 
L 1409 256 
L 897 -744 
L 494 -744 
L 750 256 
L 750 794 
z
" transform="scale(0.015625)"/>
      <path id="DejaVuSans-4f" d="M 2522 4238 
Q 1834 4238 1429 3725 
Q 1025 3213 1025 2328 
Q 1025 1447 1429 934 
Q 1834 422 2522 422 
Q 3209 422 3611 934 
Q 4013 1447 4013 2328 
Q 4013 3213 3611 3725 
Q 3209 4238 2522 4238 
z
M 2522 4750 
Q 3503 4750 4090 4092 
Q 4678 3434 4678 2328 
Q 4678 1225 4090 567 
Q 3503 -91 2522 -91 
Q 1538 -91 948 565 
Q 359 1222 359 2328 
Q 359 3434 948 4092 
Q 1538 4750 2522 4750 
z
" transform="scale(0.015625)"/>
      <path id="DejaVuSans-70" d="M 1159 525 
L 1159 -1331 
L 581 -1331 
L 581 3500 
L 1159 3500 
L 1159 2969 
Q 1341 3281 1617 3432 
Q 1894 3584 2278 3584 
Q 2916 3584 3314 3078 
Q 3713 2572 3713 1747 
Q 3713 922 3314 415 
Q 2916 -91 2278 -91 
Q 1894 -91 1617 61 
Q 1341 213 1159 525 
z
M 3116 1747 
Q 3116 2381 2855 2742 
Q 2594 3103 2138 3103 
Q 1681 3103 1420 2742 
Q 1159 2381 1159 1747 
Q 1159 1113 1420 752 
Q 1681 391 2138 391 
Q 2594 391 2855 752 
Q 3116 1113 3116 1747 
z
" transform="scale(0.015625)"/>
     </defs>
     <use xlink:href="#DejaVuSans-6b"/>
     <use xlink:href="#DejaVuSans-2d" transform="translate(57.910156 0)"/>
     <use xlink:href="#DejaVuSans-4e" transform="translate(93.994141 0)"/>
     <use xlink:href="#DejaVuSans-4e" transform="translate(168.798828 0)"/>
     <use xlink:href="#DejaVuSans-20" transform="translate(243.603516 0)"/>
     <use xlink:href="#DejaVuSans-64" transform="translate(275.390625 0)"/>
     <use xlink:href="#DejaVuSans-69" transform="translate(338.867188 0)"/>
     <use xlink:href="#DejaVuSans-73" transform="translate(366.650391 0)"/>
     <use xlink:href="#DejaVuSans-74" transform="translate(418.75 0)"/>
     <use xlink:href="#DejaVuSans-61" transform="translate(457.958984 0)"/>
     <use xlink:href="#DejaVuSans-6e" transform="translate(519.238281 0)"/>
     <use xlink:href="#DejaVuSans-63" transform="translate(582.617188 0)"/>
     <use xlink:href="#DejaVuSans-65" transform="translate(637.597656 0)"/>
     <use xlink:href="#DejaVuSans-20" transform="translate(699.121094 0)"/>
     <use xlink:href="#DejaVuSans-64" transform="translate(730.908203 0)"/>
     <use xlink:href="#DejaVuSans-69" transform="translate(794.384766 0)"/>
     <use xlink:href="#DejaVuSans-73" transform="translate(822.167969 0)"/>
     <use xlink:href="#DejaVuSans-74" transform="translate(874.267578 0)"/>
     <use xlink:href="#DejaVuSans-72" transform="translate(913.476562 0)"/>
     <use xlink:href="#DejaVuSans-69" transform="translate(954.589844 0)"/>
     <use xlink:href="#DejaVuSans-62" transform="translate(982.373047 0)"/>
     <use xlink:href="#DejaVuSans-75" transform="translate(1045.849609 0)"/>
     <use xlink:href="#DejaVuSans-74" transform="translate(1109.228516 0)"/>
     <use xlink:href="#DejaVuSans-69" transform="translate(1148.4375 0)"/>
     <use xlink:href="#DejaVuSans-6f" transform="translate(1176.220703 0)"/>
     <use xlink:href="#DejaVuSans-6e" transform="translate(1237.402344 0)"/>
     <use xlink:href="#DejaVuSans-20" transform="translate(1300.78125 0)"/>
     <use xlink:href="#DejaVuSans-28" transform="translate(1332.568359 0)"/>
     <use xlink:href="#DejaVuSans-57" transform="translate(1371.582031 0)"/>
     <use xlink:href="#DejaVuSans-61" transform="translate(1464.083984 0)"/>
     <use xlink:href="#DejaVuSans-73" transform="translate(1525.363281 0)"/>
     <use xlink:href="#DejaVuSans-73" transform="translate(1577.462891 0)"/>
     <use xlink:href="#DejaVuSans-65" transform="translate(1629.5625 0)"/>
     <use xlink:href="#DejaVuSans-72" transform="translate(1691.085938 0)"/>
     <use xlink:href="#DejaVuSans-73" transform="translate(1732.199219 0)"/>
     <use xlink:href="#DejaVuSans-74" transform="translate(1784.298828 0)"/>
     <use xlink:href="#DejaVuSans-65" transform="translate(1823.507812 0)"/>
     <use xlink:href="#DejaVuSans-69" transform="translate(1885.03125 0)"/>
     <use xlink:href="#DejaVuSans-6e" transform="translate(1912.814453 0)"/>
     <use xlink:href="#DejaVuSans-2c" transform="translate(1976.193359 0)"/>
     <use xlink:href="#DejaVuSans-20" transform="translate(2007.980469 0)"/>
     <use xlink:href="#DejaVuSans-4f" transform="translate(2039.767578 0)"/>
     <use xlink:href="#DejaVuSans-70" transform="translate(2118.478516 0)"/>
     <use xlink:href="#DejaVuSans-74" transform="translate(2181.955078 0)"/>
     <use xlink:href="#DejaVuSans-69" transform="translate(2221.164062 0)"/>
     <use xlink:href="#DejaVuSans-6f" transform="translate(2248.947266 0)"/>
     <use xlink:href="#DejaVuSans-6e" transform="translate(2310.128906 0)"/>
     <use xlink:href="#DejaVuSans-20" transform="translate(2373.507812 0)"/>
     <use xlink:href="#DejaVuSans-34" transform="translate(2405.294922 0)"/>
     <use xlink:href="#DejaVuSans-29" transform="translate(2468.917969 0)"/>
    </g>
    <!-- bimodal/long-tailed -&gt; sparsity likely | concentrated -&gt; dense risk -->
    <g transform="translate(73.431655 33.912) scale(0.12 -0.12)">
     <defs>
      <path id="DejaVuSans-6d" d="M 3328 2828 
Q 3544 3216 3844 3400 
Q 4144 3584 4550 3584 
Q 5097 3584 5394 3201 
Q 5691 2819 5691 2113 
L 5691 0 
L 5113 0 
L 5113 2094 
Q 5113 2597 4934 2840 
Q 4756 3084 4391 3084 
Q 3944 3084 3684 2787 
Q 3425 2491 3425 1978 
L 3425 0 
L 2847 0 
L 2847 2094 
Q 2847 2600 2669 2842 
Q 2491 3084 2119 3084 
Q 1678 3084 1418 2786 
Q 1159 2488 1159 1978 
L 1159 0 
L 581 0 
L 581 3500 
L 1159 3500 
L 1159 2956 
Q 1356 3278 1631 3431 
Q 1906 3584 2284 3584 
Q 2666 3584 2933 3390 
Q 3200 3197 3328 2828 
z
" transform="scale(0.015625)"/>
      <path id="DejaVuSans-2f" d="M 1625 4666 
L 2156 4666 
L 531 -594 
L 0 -594 
L 1625 4666 
z
" transform="scale(0.015625)"/>
      <path id="DejaVuSans-3e" d="M 678 3150 
L 678 3719 
L 4684 2266 
L 4684 1747 
L 678 294 
L 678 863 
L 3897 2003 
L 678 3150 
z
" transform="scale(0.015625)"/>
      <path id="DejaVuSans-79" d="M 2059 -325 
Q 1816 -950 1584 -1140 
Q 1353 -1331 966 -1331 
L 506 -1331 
L 506 -850 
L 844 -850 
Q 1081 -850 1212 -737 
Q 1344 -625 1503 -206 
L 1606 56 
L 191 3500 
L 800 3500 
L 1894 763 
L 2988 3500 
L 3597 3500 
L 2059 -325 
z
" transform="scale(0.015625)"/>
      <path id="DejaVuSans-7c" d="M 1344 4891 
L 1344 -1509 
L 813 -1509 
L 813 4891 
L 1344 4891 
z
" transform="scale(0.015625)"/>
     </defs>
     <use xlink:href="#DejaVuSans-62"/>
     <use xlink:href="#DejaVuSans-69" transform="translate(63.476562 0)"/>
     <use xlink:href="#DejaVuSans-6d" transform="translate(91.259766 0)"/>
     <use xlink:href="#DejaVuSans-6f" transform="translate(188.671875 0)"/>
     <use xlink:href="#DejaVuSans-64" transform="translate(249.853516 0)"/>
     <use xlink:href="#DejaVuSans-61" transform="translate(313.330078 0)"/>
     <use xlink:href="#DejaVuSans-6c" transform="translate(374.609375 0)"/>
     <use xlink:href="#DejaVuSans-2f" transform="translate(402.392578 0)"/>
     <use xlink:href="#DejaVuSans-6c" transform="translate(436.083984 0)"/>
     <use xlink:href="#DejaVuSans-6f" transform="translate(463.867188 0)"/>
     <use xlink:href="#DejaVuSans-6e" transform="translate(525.048828 0)"/>
     <use xlink:href="#DejaVuSans-67" transform="translate(588.427734 0)"/>
     <use xlink:href="#DejaVuSans-2d" transform="translate(651.904297 0)"/>
     <use xlink:href="#DejaVuSans-74" transform="translate(687.988281 0)"/>
     <use xlink:href="#DejaVuSans-61" transform="translate(727.197266 0)"/>
     <use xlink:href="#DejaVuSans-69" transform="translate(788.476562 0)"/>
     <use xlink:href="#DejaVuSans-6c" transform="translate(816.259766 0)"/>
     <use xlink:href="#DejaVuSans-65" transform="translate(844.042969 0)"/>
     <use xlink:href="#DejaVuSans-64" transform="translate(905.566406 0)"/>
     <use xlink:href="#DejaVuSans-20" transform="translate(969.042969 0)"/>
     <use xlink:href="#DejaVuSans-2d" transform="translate(1000.830078 0)"/>
     <use xlink:href="#DejaVuSans-3e" transform="translate(1036.914062 0)"/>
     <use xlink:href="#DejaVuSans-20" transform="translate(1120.703125 0)"/>
     <use xlink:href="#DejaVuSans-73" transform="translate(1152.490234 0)"/>
     <use xlink:href="#DejaVuSans-70" transform="translate(1204.589844 0)"/>
     <use xlink:href="#DejaVuSans-61" transform="translate(1268.066406 0)"/>
     <use xlink:href="#DejaVuSans-72" transform="translate(1329.345703 0)"/>
     <use xlink:href="#DejaVuSans-73" transform="translate(1370.458984 0)"/>
     <use xlink:href="#DejaVuSans-69" transform="translate(1422.558594 0)"/>
     <use xlink:href="#DejaVuSans-74" transform="translate(1450.341797 0)"/>
     <use xlink:href="#DejaVuSans-79" transform="translate(1489.550781 0)"/>
     <use xlink:href="#DejaVuSans-20" transform="translate(1548.730469 0)"/>
     <use xlink:href="#DejaVuSans-6c" transform="translate(1580.517578 0)"/>
     <use xlink:href="#DejaVuSans-69" transform="translate(1608.300781 0)"/>
     <use xlink:href="#DejaVuSans-6b" transform="translate(1636.083984 0)"/>
     <use xlink:href="#DejaVuSans-65" transform="translate(1690.369141 0)"/>
     <use xlink:href="#DejaVuSans-6c" transform="translate(1751.892578 0)"/>
     <use xlink:href="#DejaVuSans-79" transform="translate(1779.675781 0)"/>
     <use xlink:href="#DejaVuSans-20" transform="translate(1838.855469 0)"/>
     <use xlink:href="#DejaVuSans-7c" transform="translate(1870.642578 0)"/>
     <use xlink:href="#DejaVuSans-20" transform="translate(1904.333984 0)"/>
     <use xlink:href="#DejaVuSans-63" transform="translate(1936.121094 0)"/>
     <use xlink:href="#DejaVuSans-6f" transform="translate(1991.101562 0)"/>
     <use xlink:href="#DejaVuSans-6e" transform="translate(2052.283203 0)"/>
     <use xlink:href="#DejaVuSans-63" transform="translate(2115.662109 0)"/>
     <use xlink:href="#DejaVuSans-65" transform="translate(2170.642578 0)"/>
     <use xlink:href="#DejaVuSans-6e" transform="translate(2232.166016 0)"/>
     <use xlink:href="#DejaVuSans-74" transform="translate(2295.544922 0)"/>
     <use xlink:href="#DejaVuSans-72" transform="translate(2334.753906 0)"/>
     <use xlink:href="#DejaVuSans-61" transform="translate(2375.867188 0)"/>
     <use xlink:href="#DejaVuSans-74" transform="translate(2437.146484 0)"/>
     <use xlink:href="#DejaVuSans-65" transform="translate(2476.355469 0)"/>
     <use xlink:href="#DejaVuSans-64" transform="translate(2537.878906 0)"/>
     <use xlink:href="#DejaVuSans-20" transform="translate(2601.355469 0)"/>
     <use xlink:href="#DejaVuSans-2d" transform="translate(2633.142578 0)"/>
     <use xlink:href="#DejaVuSans-3e" transform="translate(2669.226562 0)"/>
     <use xlink:href="#DejaVuSans-20" transform="translate(2753.015625 0)"/>
     <use xlink:href="#DejaVuSans-64" transform="translate(2784.802734 0)"/>
     <use xlink:href="#DejaVuSans-65" transform="translate(2848.279297 0)"/>
     <use xlink:href="#DejaVuSans-6e" transform="translate(2909.802734 0)"/>
     <use xlink:href="#DejaVuSans-73" transform="translate(2973.181641 0)"/>
     <use xlink:href="#DejaVuSans-65" transform="translate(3025.28125 0)"/>
     <use xlink:href="#DejaVuSans-20" transform="translate(3086.804688 0)"/>
     <use xlink:href="#DejaVuSans-72" transform="translate(3118.591797 0)"/>
     <use xlink:href="#DejaVuSans-69" transform="translate(3159.705078 0)"/>
     <use xlink:href="#DejaVuSans-73" transform="translate(3187.488281 0)"/>
     <use xlink:href="#DejaVuSans-6b" transform="translate(3239.587891 0)"/>
    </g>
   </g>
  </g>
 </g>
 <defs>
  <clipPath id="p6df8a09fbd">
   <rect x="49.361435" y="39.912" width="443.838565" height="206.128"/>
  </clipPath>
 </defs>
</svg>
