<?xml version="1.0" encoding="utf-8" standalone="no"?>
<!DOCTYPE svg PUBLIC "-//W3C//DTD SVG 1.1//EN"
  "http://www.w3.org/Graphics/SVG/1.1/DTD/svg11.dtd">
<svg xmlns:xlink="http://www.w3.org/1999/xlink" width="1080pt" height="288pt" viewBox="0 0 1080 288" xmlns="http://www.w3.org/2000/svg" version="1.1">
 <metadata>
  <rdf:RDF xmlns:dc="http://purl.org/dc/elements/1.1/" xmlns:cc="http://creativecommons.org/ns#" xmlns:rdf="http://www.w3.org/1999/02/22-rdf-syntax-ns#">
   <cc:Work>
    <dc:type rdf:resource="http://purl.org/dc/dcmitype/StillImage"/>
    <dc:date>2026-06-11T14:54:29.957392</dc:date>
    <dc:format>image/svg+xml</dc:format>
    <dc:creator>
     <cc:Agent>
      <dc:title>Matplotlib v3.10.9, https://matplotlib.org/</dc:title>
     </cc:Agent>
    </dc:creator>
   </cc:Work>
  </rdf:RDF>
 </metadata>
 <defs>
  <style type="text/css">*{stroke-linejoin: round; stroke-linecap: butt}</style>
 </defs>
 <g id="figure_1">
  <g id="patch_1">
   <path d="M 0 288 
L 1080 288 
L 1080 0 
L 0 0 
z
" style="fill: #ffffff"/>
  </g>
  <g id="axes_1">
   <g id="patch_2">
    <path d="M 57.395 246.04 
L 357.266667 246.04 
L 357.266667 26.16 
L 57.395 26.16 
z
" style="fill: #ffffff"/>
   </g>
   <g id="patch_3">
    <path d="M 71.02553 246.04 
L 77.840795 246.04 
L 77.840795 165.443729 
L 71.02553 165.443729 
z
" clip-path="url(#p91478dd184)" style="fill: #4c72b0"/>
   </g>
   <g id="patch_4">
    <path d="M 77.840795 246.04 
L 84.656061 246.04 
L 84.656061 36.630476 
L 77.840795 36.630476 
z
" clip-path="url(#p91478dd184)" style="fill: #4c72b0"/>
   </g>
   <g id="patch_5">
    <path d="M 84.656061 246.04 
L 91.471326 246.04 
L 91.471326 164.739832 
L 84.656061 164.739832 
z
" clip-path="url(#p91478dd184)" style="fill: #4c72b0"/>
   </g>
   <g id="patch_6">
    <path d="M 91.471326 246.04 
L 98.286591 246.04 
L 98.286591 207.853557 
L 91.471326 207.853557 
z
" clip-path="url(#p91478dd184)" style="fill: #4c72b0"/>
   </g>
   <g id="patch_7">
    <path d="M 98.286591 246.04 
L 105.101856 246.04 
L 105.101856 207.853557 
L 98.286591 207.853557 
z
" clip-path="url(#p91478dd184)" style="fill: #4c72b0"/>
   </g>
   <g id="patch_8">
    <path d="M 105.101856 246.04 
L 111.917121 246.04 
L 111.917121 192.367811 
L 105.101856 192.367811 
z
" clip-path="url(#p91478dd184)" style="fill: #4c72b0"/>
   </g>
   <g id="patch_9">
    <path d="M 111.917121 246.04 
L 118.732386 246.04 
L 118.732386 197.11912 
L 111.917121 197.11912 
z
" clip-path="url(#p91478dd184)" style="fill: #4c72b0"/>
   </g>
   <g id="patch_10">
    <path d="M 118.732386 246.04 
L 125.547652 246.04 
L 125.547652 195.359376 
L 118.732386 195.359376 
z
" clip-path="url(#p91478dd184)" style="fill: #4c72b0"/>
   </g>
   <g id="patch_11">
    <path d="M 125.547652 246.04 
L 132.362917 246.04 
L 132.362917 208.557455 
L 125.547652 208.557455 
z
" clip-path="url(#p91478dd184)" style="fill: #4c72b0"/>
   </g>
   <g id="patch_12">
    <path d="M 132.362917 246.04 
L 139.178182 246.04 
L 139.178182 209.437327 
L 132.362917 209.437327 
z
" clip-path="url(#p91478dd184)" style="fill: #4c72b0"/>
   </g>
   <g id="patch_13">
    <path d="M 139.178182 246.04 
L 145.993447 246.04 
L 145.993447 213.660712 
L 139.178182 213.660712 
z
" clip-path="url(#p91478dd184)" style="fill: #4c72b0"/>
   </g>
   <g id="patch_14">
    <path d="M 145.993447 246.04 
L 152.808712 246.04 
L 152.808712 215.948379 
L 145.993447 215.948379 
z
" clip-path="url(#p91478dd184)" style="fill: #4c72b0"/>
   </g>
   <g id="patch_15">
    <path d="M 152.808712 246.04 
L 159.623977 246.04 
L 159.623977 214.188635 
L 152.808712 214.188635 
z
" clip-path="url(#p91478dd184)" style="fill: #4c72b0"/>
   </g>
   <g id="patch_16">
    <path d="M 159.623977 246.04 
L 166.439242 246.04 
L 166.439242 217.1802 
L 159.623977 217.1802 
z
" clip-path="url(#p91478dd184)" style="fill: #4c72b0"/>
   </g>
   <g id="patch_17">
    <path d="M 166.439242 246.04 
L 173.254508 246.04 
L 173.254508 224.571124 
L 166.439242 224.571124 
z
" clip-path="url(#p91478dd184)" style="fill: #4c72b0"/>
   </g>
   <g id="patch_18">
    <path d="M 173.254508 246.04 
L 180.069773 246.04 
L 180.069773 234.249716 
L 173.254508 234.249716 
z
" clip-path="url(#p91478dd184)" style="fill: #4c72b0"/>
   </g>
   <g id="patch_19">
    <path d="M 180.069773 246.04 
L 186.885038 246.04 
L 186.885038 234.42569 
L 180.069773 234.42569 
z
" clip-path="url(#p91478dd184)" style="fill: #4c72b0"/>
   </g>
   <g id="patch_20">
    <path d="M 186.885038 246.04 
L 193.700303 246.04 
L 193.700303 238.297127 
L 186.885038 238.297127 
z
" clip-path="url(#p91478dd184)" style="fill: #4c72b0"/>
   </g>
   <g id="patch_21">
    <path d="M 193.700303 246.04 
L 200.515568 246.04 
L 200.515568 240.584794 
L 193.700303 240.584794 
z
" clip-path="url(#p91478dd184)" style="fill: #4c72b0"/>
   </g>
   <g id="patch_22">
    <path d="M 200.515568 246.04 
L 207.330833 246.04 
L 207.330833 242.520512 
L 200.515568 242.520512 
z
" clip-path="url(#p91478dd184)" style="fill: #4c72b0"/>
   </g>
   <g id="patch_23">
    <path d="M 207.330833 246.04 
L 214.146098 246.04 
L 214.146098 241.992589 
L 207.330833 241.992589 
z
" clip-path="url(#p91478dd184)" style="fill: #4c72b0"/>
   </g>
   <g id="patch_24">
    <path d="M 214.146098 246.04 
L 220.961364 246.04 
L 220.961364 242.696487 
L 214.146098 242.696487 
z
" clip-path="url(#p91478dd184)" style="fill: #4c72b0"/>
   </g>
   <g id="patch_25">
    <path d="M 220.961364 246.04 
L 227.776629 246.04 
L 227.776629 243.752333 
L 220.961364 243.752333 
z
" clip-path="url(#p91478dd184)" style="fill: #4c72b0"/>
   </g>
   <g id="patch_26">
    <path d="M 227.776629 246.04 
L 234.591894 246.04 
L 234.591894 245.336102 
L 227.776629 245.336102 
z
" clip-path="url(#p91478dd184)" style="fill: #4c72b0"/>
   </g>
   <g id="patch_27">
    <path d="M 234.591894 246.04 
L 241.407159 246.04 
L 241.407159 245.160128 
L 234.591894 245.160128 
z
" clip-path="url(#p91478dd184)" style="fill: #4c72b0"/>
   </g>
   <g id="patch_28">
    <path d="M 241.407159 246.04 
L 248.222424 246.04 
L 248.222424 244.632205 
L 241.407159 244.632205 
z
" clip-path="url(#p91478dd184)" style="fill: #4c72b0"/>
   </g>
   <g id="patch_29">
    <path d="M 248.222424 246.04 
L 255.037689 246.04 
L 255.037689 244.632205 
L 248.222424 244.632205 
z
" clip-path="url(#p91478dd184)" style="fill: #4c72b0"/>
   </g>
   <g id="patch_30">
    <path d="M 255.037689 246.04 
L 261.852955 246.04 
L 261.852955 244.984154 
L 255.037689 244.984154 
z
" clip-path="url(#p91478dd184)" style="fill: #4c72b0"/>
   </g>
   <g id="patch_31">
    <path d="M 261.852955 246.04 
L 268.66822 246.04 
L 268.66822 245.688051 
L 261.852955 245.688051 
z
" clip-path="url(#p91478dd184)" style="fill: #4c72b0"/>
   </g>
   <g id="patch_32">
    <path d="M 268.66822 246.04 
L 275.483485 246.04 
L 275.483485 245.336102 
L 268.66822 245.336102 
z
" clip-path="url(#p91478dd184)" style="fill: #4c72b0"/>
   </g>
   <g id="patch_33">
    <path d="M 275.483485 246.04 
L 282.29875 246.04 
L 282.29875 245.512077 
L 275.483485 245.512077 
z
" clip-path="url(#p91478dd184)" style="fill: #4c72b0"/>
   </g>
   <g id="patch_34">
    <path d="M 282.29875 246.04 
L 289.114015 246.04 
L 289.114015 245.688051 
L 282.29875 245.688051 
z
" clip-path="url(#p91478dd184)" style="fill: #4c72b0"/>
   </g>
   <g id="patch_35">
    <path d="M 289.114015 246.04 
L 295.92928 246.04 
L 295.92928 245.336102 
L 289.114015 245.336102 
z
" clip-path="url(#p91478dd184)" style="fill: #4c72b0"/>
   </g>
   <g id="patch_36">
    <path d="M 295.92928 246.04 
L 302.744545 246.04 
L 302.744545 245.688051 
L 295.92928 245.688051 
z
" clip-path="url(#p91478dd184)" style="fill: #4c72b0"/>
   </g>
   <g id="patch_37">
    <path d="M 302.744545 246.04 
L 309.559811 246.04 
L 309.559811 245.688051 
L 302.744545 245.688051 
z
" clip-path="url(#p91478dd184)" style="fill: #4c72b0"/>
   </g>
   <g id="patch_38">
    <path d="M 309.559811 246.04 
L 316.375076 246.04 
L 316.375076 245.688051 
L 309.559811 245.688051 
z
" clip-path="url(#p91478dd184)" style="fill: #4c72b0"/>
   </g>
   <g id="patch_39">
    <path d="M 316.375076 246.04 
L 323.190341 246.04 
L 323.190341 245.512077 
L 316.375076 245.512077 
z
" clip-path="url(#p91478dd184)" style="fill: #4c72b0"/>
   </g>
   <g id="patch_40">
    <path d="M 323.190341 246.04 
L 330.005606 246.04 
L 330.005606 246.04 
L 323.190341 246.04 
z
" clip-path="url(#p91478dd184)" style="fill: #4c72b0"/>
   </g>
   <g id="patch_41">
    <path d="M 330.005606 246.04 
L 336.820871 246.04 
L 336.820871 245.688051 
L 330.005606 245.688051 
z
" clip-path="url(#p91478dd184)" style="fill: #4c72b0"/>
   </g>
   <g id="patch_42">
    <path d="M 336.820871 246.04 
L 343.636136 246.04 
L 343.636136 245.688051 
L 336.820871 245.688051 
z
" clip-path="url(#p91478dd184)" style="fill: #4c72b0"/>
   </g>
   <g id="matplotlib.axis_1">
    <g id="xtick_1">
     <g id="line2d_1">
      <defs>
       <path id="m18ae1e9c59" d="M 0 0 
L 0 3.5 
" style="stroke: #000000; stroke-width: 0.8"/>
      </defs>
      <g>
       <use xlink:href="#m18ae1e9c59" x="69.431316" y="246.04" style="stroke: #000000; stroke-width: 0.8"/>
      </g>
     </g>
     <g id="text_1">
      <!-- 0 -->
      <g transform="translate(66.250066 260.638438) scale(0.1 -0.1)">
       <defs>
        <path id="DejaVuSans-30" d="M 2034 4250 
Q 1547 4250 1301 3770 
Q 1056 3291 1056 2328 
Q 1056 1369 1301 889 
Q 1547 409 2034 409 
Q 2525 409 2770 889 
Q 3016 1369 3016 2328 
Q 3016 3291 2770 3770 
Q 2525 4250 2034 4250 
z
M 2034 4750 
Q 2819 4750 3233 4129 
Q 3647 3509 3647 2328 
Q 3647 1150 3233 529 
Q 2819 -91 2034 -91 
Q 1250 -91 836 529 
Q 422 1150 422 2328 
Q 422 3509 836 4129 
Q 1250 4750 2034 4750 
z
" transform="scale(0.015625)"/>
       </defs>
       <use xlink:href="#DejaVuSans-30"/>
      </g>
     </g>
    </g>
    <g id="xtick_2">
     <g id="line2d_2">
      <g>
       <use xlink:href="#m18ae1e9c59" x="109.286668" y="246.04" style="stroke: #000000; stroke-width: 0.8"/>
      </g>
     </g>
     <g id="text_2">
      <!-- 50 -->
      <g transform="translate(102.924168 260.638438) scale(0.1 -0.1)">
       <defs>
        <path id="DejaVuSans-35" d="M 691 4666 
L 3169 4666 
L 3169 4134 
L 1269 4134 
L 1269 2991 
Q 1406 3038 1543 3061 
Q 1681 3084 1819 3084 
Q 2600 3084 3056 2656 
Q 3513 2228 3513 1497 
Q 3513 744 3044 326 
Q 2575 -91 1722 -91 
Q 1428 -91 1123 -41 
Q 819 9 494 109 
L 494 744 
Q 775 591 1075 516 
Q 1375 441 1709 441 
Q 2250 441 2565 725 
Q 2881 1009 2881 1497 
Q 2881 1984 2565 2268 
Q 2250 2553 1709 2553 
Q 1456 2553 1204 2497 
Q 953 2441 691 2322 
L 691 4666 
z
" transform="scale(0.015625)"/>
       </defs>
       <use xlink:href="#DejaVuSans-35"/>
       <use xlink:href="#DejaVuSans-30" transform="translate(63.623047 0)"/>
      </g>
     </g>
    </g>
    <g id="xtick_3">
     <g id="line2d_3">
      <g>
       <use xlink:href="#m18ae1e9c59" x="149.14202" y="246.04" style="stroke: #000000; stroke-width: 0.8"/>
      </g>
     </g>
     <g id="text_3">
      <!-- 100 -->
      <g transform="translate(139.59827 260.638438) scale(0.1 -0.1)">
       <defs>
        <path id="DejaVuSans-31" d="M 794 531 
L 1825 531 
L 1825 4091 
L 703 3866 
L 703 4441 
L 1819 4666 
L 2450 4666 
L 2450 531 
L 3481 531 
L 3481 0 
L 794 0 
L 794 531 
z
" transform="scale(0.015625)"/>
       </defs>
       <use xlink:href="#DejaVuSans-31"/>
       <use xlink:href="#DejaVuSans-30" transform="translate(63.623047 0)"/>
       <use xlink:href="#DejaVuSans-30" transform="translate(127.246094 0)"/>
      </g>
     </g>
    </g>
    <g id="xtick_4">
     <g id="line2d_4">
      <g>
       <use xlink:href="#m18ae1e9c59" x="188.997372" y="246.04" style="stroke: #000000; stroke-width: 0.8"/>
      </g>
     </g>
     <g id="text_4">
      <!-- 150 -->
      <g transform="translate(179.453622 260.638438) scale(0.1 -0.1)">
       <use xlink:href="#DejaVuSans-31"/>
       <use xlink:href="#DejaVuSans-35" transform="translate(63.623047 0)"/>
       <use xlink:href="#DejaVuSans-30" transform="translate(127.246094 0)"/>
      </g>
     </g>
    </g>
    <g id="xtick_5">
     <g id="line2d_5">
      <g>
       <use xlink:href="#m18ae1e9c59" x="228.852723" y="246.04" style="stroke: #000000; stroke-width: 0.8"/>
      </g>
     </g>
     <g id="text_5">
      <!-- 200 -->
      <g transform="translate(219.308973 260.638438) scale(0.1 -0.1)">
       <defs>
        <path id="DejaVuSans-32" d="M 1228 531 
L 3431 531 
L 3431 0 
L 469 0 
L 469 531 
Q 828 903 1448 1529 
Q 2069 2156 2228 2338 
Q 2531 2678 2651 2914 
Q 2772 3150 2772 3378 
Q 2772 3750 2511 3984 
Q 2250 4219 1831 4219 
Q 1534 4219 1204 4116 
Q 875 4013 500 3803 
L 500 4441 
Q 881 4594 1212 4672 
Q 1544 4750 1819 4750 
Q 2544 4750 2975 4387 
Q 3406 4025 3406 3419 
Q 3406 3131 3298 2873 
Q 3191 2616 2906 2266 
Q 2828 2175 2409 1742 
Q 1991 1309 1228 531 
z
" transform="scale(0.015625)"/>
       </defs>
       <use xlink:href="#DejaVuSans-32"/>
       <use xlink:href="#DejaVuSans-30" transform="translate(63.623047 0)"/>
       <use xlink:href="#DejaVuSans-30" transform="translate(127.246094 0)"/>
      </g>
     </g>
    </g>
    <g id="xtick_6">
     <g id="line2d_6">
      <g>
       <use xlink:href="#m18ae1e9c59" x="268.708075" y="246.04" style="stroke: #000000; stroke-width: 0.8"/>
      </g>
     </g>
     <g id="text_6">
      <!-- 250 -->
      <g transform="translate(259.164325 260.638438) scale(0.1 -0.1)">
       <use xlink:href="#DejaVuSans-32"/>
       <use xlink:href="#DejaVuSans-35" transform="translate(63.623047 0)"/>
       <use xlink:href="#DejaVuSans-30" transform="translate(127.246094 0)"/>
      </g>
     </g>
    </g>
    <g id="xtick_7">
     <g id="line2d_7">
      <g>
       <use xlink:href="#m18ae1e9c59" x="308.563427" y="246.04" style="stroke: #000000; stroke-width: 0.8"/>
      </g>
     </g>
     <g id="text_7">
      <!-- 300 -->
      <g transform="translate(299.019677 260.638438) scale(0.1 -0.1)">
       <defs>
        <path id="DejaVuSans-33" d="M 2597 2516 
Q 3050 2419 3304 2112 
Q 3559 1806 3559 1356 
Q 3559 666 3084 287 
Q 2609 -91 1734 -91 
Q 1441 -91 1130 -33 
Q 819 25 488 141 
L 488 750 
Q 750 597 1062 519 
Q 1375 441 1716 441 
Q 2309 441 2620 675 
Q 2931 909 2931 1356 
Q 2931 1769 2642 2001 
Q 2353 2234 1838 2234 
L 1294 2234 
L 1294 2753 
L 1863 2753 
Q 2328 2753 2575 2939 
Q 2822 3125 2822 3475 
Q 2822 3834 2567 4026 
Q 2313 4219 1838 4219 
Q 1578 4219 1281 4162 
Q 984 4106 628 3988 
L 628 4550 
Q 988 4650 1302 4700 
Q 1616 4750 1894 4750 
Q 2613 4750 3031 4423 
Q 3450 4097 3450 3541 
Q 3450 3153 3228 2886 
Q 3006 2619 2597 2516 
z
" transform="scale(0.015625)"/>
       </defs>
       <use xlink:href="#DejaVuSans-33"/>
       <use xlink:href="#DejaVuSans-30" transform="translate(63.623047 0)"/>
       <use xlink:href="#DejaVuSans-30" transform="translate(127.246094 0)"/>
      </g>
     </g>
    </g>
    <g id="xtick_8">
     <g id="line2d_8">
      <g>
       <use xlink:href="#m18ae1e9c59" x="348.418779" y="246.04" style="stroke: #000000; stroke-width: 0.8"/>
      </g>
     </g>
     <g id="text_8">
      <!-- 350 -->
      <g transform="translate(338.875029 260.638438) scale(0.1 -0.1)">
       <use xlink:href="#DejaVuSans-33"/>
       <use xlink:href="#DejaVuSans-35" transform="translate(63.623047 0)"/>
       <use xlink:href="#DejaVuSans-30" transform="translate(127.246094 0)"/>
      </g>
     </g>
    </g>
    <g id="text_9">
     <!-- n_atoms -->
     <g transform="translate(186.10349 274.038437) scale(0.1 -0.1)">
      <defs>
       <path id="DejaVuSans-6e" d="M 3513 2113 
L 3513 0 
L 2938 0 
L 2938 2094 
Q 2938 2591 2744 2837 
Q 2550 3084 2163 3084 
Q 1697 3084 1428 2787 
Q 1159 2491 1159 1978 
L 1159 0 
L 581 0 
L 581 3500 
L 1159 3500 
L 1159 2956 
Q 1366 3272 1645 3428 
Q 1925 3584 2291 3584 
Q 2894 3584 3203 3211 
Q 3513 2838 3513 2113 
z
" transform="scale(0.015625)"/>
       <path id="DejaVuSans-5f" d="M 3263 -1063 
L 3263 -1509 
L -63 -1509 
L -63 -1063 
L 3263 -1063 
z
" transform="scale(0.015625)"/>
       <path id="DejaVuSans-61" d="M 2194 1759 
Q 1497 1759 1228 1600 
Q 959 1441 959 1056 
Q 959 750 1161 570 
Q 1363 391 1709 391 
Q 2188 391 2477 730 
Q 2766 1069 2766 1631 
L 2766 1759 
L 2194 1759 
z
M 3341 1997 
L 3341 0 
L 2766 0 
L 2766 531 
Q 2569 213 2275 61 
Q 1981 -91 1556 -91 
Q 1019 -91 701 211 
Q 384 513 384 1019 
Q 384 1609 779 1909 
Q 1175 2209 1959 2209 
L 2766 2209 
L 2766 2266 
Q 2766 2663 2505 2880 
Q 2244 3097 1772 3097 
Q 1472 3097 1187 3025 
Q 903 2953 641 2809 
L 641 3341 
Q 956 3463 1253 3523 
Q 1550 3584 1831 3584 
Q 2591 3584 2966 3190 
Q 3341 2797 3341 1997 
z
" transform="scale(0.015625)"/>
       <path id="DejaVuSans-74" d="M 1172 4494 
L 1172 3500 
L 2356 3500 
L 2356 3053 
L 1172 3053 
L 1172 1153 
Q 1172 725 1289 603 
Q 1406 481 1766 481 
L 2356 481 
L 2356 0 
L 1766 0 
Q 1100 0 847 248 
Q 594 497 594 1153 
L 594 3053 
L 172 3053 
L 172 3500 
L 594 3500 
L 594 4494 
L 1172 4494 
z
" transform="scale(0.015625)"/>
       <path id="DejaVuSans-6f" d="M 1959 3097 
Q 1497 3097 1228 2736 
Q 959 2375 959 1747 
Q 959 1119 1226 758 
Q 1494 397 1959 397 
Q 2419 397 2687 759 
Q 2956 1122 2956 1747 
Q 2956 2369 2687 2733 
Q 2419 3097 1959 3097 
z
M 1959 3584 
Q 2709 3584 3137 3096 
Q 3566 2609 3566 1747 
Q 3566 888 3137 398 
Q 2709 -91 1959 -91 
Q 1206 -91 779 398 
Q 353 888 353 1747 
Q 353 2609 779 3096 
Q 1206 3584 1959 3584 
z
" transform="scale(0.015625)"/>
       <path id="DejaVuSans-6d" d="M 3328 2828 
Q 3544 3216 3844 3400 
Q 4144 3584 4550 3584 
Q 5097 3584 5394 3201 
Q 5691 2819 5691 2113 
L 5691 0 
L 5113 0 
L 5113 2094 
Q 5113 2597 4934 2840 
Q 4756 3084 4391 3084 
Q 3944 3084 3684 2787 
Q 3425 2491 3425 1978 
L 3425 0 
L 2847 0 
L 2847 2094 
Q 2847 2600 2669 2842 
Q 2491 3084 2119 3084 
Q 1678 3084 1418 2786 
Q 1159 2488 1159 1978 
L 1159 0 
L 581 0 
L 581 3500 
L 1159 3500 
L 1159 2956 
Q 1356 3278 1631 3431 
Q 1906 3584 2284 3584 
Q 2666 3584 2933 3390 
Q 3200 3197 3328 2828 
z
" transform="scale(0.015625)"/>
       <path id="DejaVuSans-73" d="M 2834 3397 
L 2834 2853 
Q 2591 2978 2328 3040 
Q 2066 3103 1784 3103 
Q 1356 3103 1142 2972 
Q 928 2841 928 2578 
Q 928 2378 1081 2264 
Q 1234 2150 1697 2047 
L 1894 2003 
Q 2506 1872 2764 1633 
Q 3022 1394 3022 966 
Q 3022 478 2636 193 
Q 2250 -91 1575 -91 
Q 1294 -91 989 -36 
Q 684 19 347 128 
L 347 722 
Q 666 556 975 473 
Q 1284 391 1588 391 
Q 1994 391 2212 530 
Q 2431 669 2431 922 
Q 2431 1156 2273 1281 
Q 2116 1406 1581 1522 
L 1381 1569 
Q 847 1681 609 1914 
Q 372 2147 372 2553 
Q 372 3047 722 3315 
Q 1072 3584 1716 3584 
Q 2034 3584 2315 3537 
Q 2597 3491 2834 3397 
z
" transform="scale(0.015625)"/>
      </defs>
      <use xlink:href="#DejaVuSans-6e"/>
      <use xlink:href="#DejaVuSans-5f" transform="translate(63.378906 0)"/>
      <use xlink:href="#DejaVuSans-61" transform="translate(113.378906 0)"/>
      <use xlink:href="#DejaVuSans-74" transform="translate(174.658203 0)"/>
      <use xlink:href="#DejaVuSans-6f" transform="translate(213.867188 0)"/>
      <use xlink:href="#DejaVuSans-6d" transform="translate(275.048828 0)"/>
      <use xlink:href="#DejaVuSans-73" transform="translate(372.460938 0)"/>
     </g>
    </g>
   </g>
   <g id="matplotlib.axis_2">
    <g id="ytick_1">
     <g id="line2d_9">
      <defs>
       <path id="m67551f8eb3" d="M 0 0 
L -3.5 0 
" style="stroke: #000000; stroke-width: 0.8"/>
      </defs>
      <g>
       <use xlink:href="#m67551f8eb3" x="57.395" y="246.04" style="stroke: #000000; stroke-width: 0.8"/>
      </g>
     </g>
     <g id="text_10">
      <!-- 0 -->
      <g transform="translate(44.0325 249.839219) scale(0.1 -0.1)">
       <use xlink:href="#DejaVuSans-30"/>
      </g>
     </g>
    </g>
    <g id="ytick_2">
     <g id="line2d_10">
      <g>
       <use xlink:href="#m67551f8eb3" x="57.395" y="210.845122" style="stroke: #000000; stroke-width: 0.8"/>
      </g>
     </g>
     <g id="text_11">
      <!-- 200 -->
      <g transform="translate(31.3075 214.644341) scale(0.1 -0.1)">
       <use xlink:href="#DejaVuSans-32"/>
       <use xlink:href="#DejaVuSans-30" transform="translate(63.623047 0)"/>
       <use xlink:href="#DejaVuSans-30" transform="translate(127.246094 0)"/>
      </g>
     </g>
    </g>
    <g id="ytick_3">
     <g id="line2d_11">
      <g>
       <use xlink:href="#m67551f8eb3" x="57.395" y="175.650244" style="stroke: #000000; stroke-width: 0.8"/>
      </g>
     </g>
     <g id="text_12">
      <!-- 400 -->
      <g transform="translate(31.3075 179.449463) scale(0.1 -0.1)">
       <defs>
        <path id="DejaVuSans-34" d="M 2419 4116 
L 825 1625 
L 2419 1625 
L 2419 4116 
z
M 2253 4666 
L 3047 4666 
L 3047 1625 
L 3713 1625 
L 3713 1100 
L 3047 1100 
L 3047 0 
L 2419 0 
L 2419 1100 
L 313 1100 
L 313 1709 
L 2253 4666 
z
" transform="scale(0.015625)"/>
       </defs>
       <use xlink:href="#DejaVuSans-34"/>
       <use xlink:href="#DejaVuSans-30" transform="translate(63.623047 0)"/>
       <use xlink:href="#DejaVuSans-30" transform="translate(127.246094 0)"/>
      </g>
     </g>
    </g>
    <g id="ytick_4">
     <g id="line2d_12">
      <g>
       <use xlink:href="#m67551f8eb3" x="57.395" y="140.455366" style="stroke: #000000; stroke-width: 0.8"/>
      </g>
     </g>
     <g id="text_13">
      <!-- 600 -->
      <g transform="translate(31.3075 144.254585) scale(0.1 -0.1)">
       <defs>
        <path id="DejaVuSans-36" d="M 2113 2584 
Q 1688 2584 1439 2293 
Q 1191 2003 1191 1497 
Q 1191 994 1439 701 
Q 1688 409 2113 409 
Q 2538 409 2786 701 
Q 3034 994 3034 1497 
Q 3034 2003 2786 2293 
Q 2538 2584 2113 2584 
z
M 3366 4563 
L 3366 3988 
Q 3128 4100 2886 4159 
Q 2644 4219 2406 4219 
Q 1781 4219 1451 3797 
Q 1122 3375 1075 2522 
Q 1259 2794 1537 2939 
Q 1816 3084 2150 3084 
Q 2853 3084 3261 2657 
Q 3669 2231 3669 1497 
Q 3669 778 3244 343 
Q 2819 -91 2113 -91 
Q 1303 -91 875 529 
Q 447 1150 447 2328 
Q 447 3434 972 4092 
Q 1497 4750 2381 4750 
Q 2619 4750 2861 4703 
Q 3103 4656 3366 4563 
z
" transform="scale(0.015625)"/>
       </defs>
       <use xlink:href="#DejaVuSans-36"/>
       <use xlink:href="#DejaVuSans-30" transform="translate(63.623047 0)"/>
       <use xlink:href="#DejaVuSans-30" transform="translate(127.246094 0)"/>
      </g>
     </g>
    </g>
    <g id="ytick_5">
     <g id="line2d_13">
      <g>
       <use xlink:href="#m67551f8eb3" x="57.395" y="105.260488" style="stroke: #000000; stroke-width: 0.8"/>
      </g>
     </g>
     <g id="text_14">
      <!-- 800 -->
      <g transform="translate(31.3075 109.059707) scale(0.1 -0.1)">
       <defs>
        <path id="DejaVuSans-38" d="M 2034 2216 
Q 1584 2216 1326 1975 
Q 1069 1734 1069 1313 
Q 1069 891 1326 650 
Q 1584 409 2034 409 
Q 2484 409 2743 651 
Q 3003 894 3003 1313 
Q 3003 1734 2745 1975 
Q 2488 2216 2034 2216 
z
M 1403 2484 
Q 997 2584 770 2862 
Q 544 3141 544 3541 
Q 544 4100 942 4425 
Q 1341 4750 2034 4750 
Q 2731 4750 3128 4425 
Q 3525 4100 3525 3541 
Q 3525 3141 3298 2862 
Q 3072 2584 2669 2484 
Q 3125 2378 3379 2068 
Q 3634 1759 3634 1313 
Q 3634 634 3220 271 
Q 2806 -91 2034 -91 
Q 1263 -91 848 271 
Q 434 634 434 1313 
Q 434 1759 690 2068 
Q 947 2378 1403 2484 
z
M 1172 3481 
Q 1172 3119 1398 2916 
Q 1625 2713 2034 2713 
Q 2441 2713 2670 2916 
Q 2900 3119 2900 3481 
Q 2900 3844 2670 4047 
Q 2441 4250 2034 4250 
Q 1625 4250 1398 4047 
Q 1172 3844 1172 3481 
z
" transform="scale(0.015625)"/>
       </defs>
       <use xlink:href="#DejaVuSans-38"/>
       <use xlink:href="#DejaVuSans-30" transform="translate(63.623047 0)"/>
       <use xlink:href="#DejaVuSans-30" transform="translate(127.246094 0)"/>
      </g>
     </g>
    </g>
    <g id="ytick_6">
     <g id="line2d_14">
      <g>
       <use xlink:href="#m67551f8eb3" x="57.395" y="70.06561" style="stroke: #000000; stroke-width: 0.8"/>
      </g>
     </g>
     <g id="text_15">
      <!-- 1000 -->
      <g transform="translate(24.945 73.864829) scale(0.1 -0.1)">
       <use xlink:href="#DejaVuSans-31"/>
       <use xlink:href="#DejaVuSans-30" transform="translate(63.623047 0)"/>
       <use xlink:href="#DejaVuSans-30" transform="translate(127.246094 0)"/>
       <use xlink:href="#DejaVuSans-30" transform="translate(190.869141 0)"/>
      </g>
     </g>
    </g>
    <g id="ytick_7">
     <g id="line2d_15">
      <g>
       <use xlink:href="#m67551f8eb3" x="57.395" y="34.870732" style="stroke: #000000; stroke-width: 0.8"/>
      </g>
     </g>
     <g id="text_16">
      <!-- 1200 -->
      <g transform="translate(24.945 38.669951) scale(0.1 -0.1)">
       <use xlink:href="#DejaVuSans-31"/>
       <use xlink:href="#DejaVuSans-32" transform="translate(63.623047 0)"/>
       <use xlink:href="#DejaVuSans-30" transform="translate(127.246094 0)"/>
       <use xlink:href="#DejaVuSans-30" transform="translate(190.869141 0)"/>
      </g>
     </g>
    </g>
    <g id="text_17">
     <!-- count -->
     <g transform="translate(18.865312 150.20625) rotate(-90) scale(0.1 -0.1)">
      <defs>
       <path id="DejaVuSans-63" d="M 3122 3366 
L 3122 2828 
Q 2878 2963 2633 3030 
Q 2388 3097 2138 3097 
Q 1578 3097 1268 2742 
Q 959 2388 959 1747 
Q 959 1106 1268 751 
Q 1578 397 2138 397 
Q 2388 397 2633 464 
Q 2878 531 3122 666 
L 3122 134 
Q 2881 22 2623 -34 
Q 2366 -91 2075 -91 
Q 1284 -91 818 406 
Q 353 903 353 1747 
Q 353 2603 823 3093 
Q 1294 3584 2113 3584 
Q 2378 3584 2631 3529 
Q 2884 3475 3122 3366 
z
" transform="scale(0.015625)"/>
       <path id="DejaVuSans-75" d="M 544 1381 
L 544 3500 
L 1119 3500 
L 1119 1403 
Q 1119 906 1312 657 
Q 1506 409 1894 409 
Q 2359 409 2629 706 
Q 2900 1003 2900 1516 
L 2900 3500 
L 3475 3500 
L 3475 0 
L 2900 0 
L 2900 538 
Q 2691 219 2414 64 
Q 2138 -91 1772 -91 
Q 1169 -91 856 284 
Q 544 659 544 1381 
z
M 1991 3584 
L 1991 3584 
z
" transform="scale(0.015625)"/>
      </defs>
      <use xlink:href="#DejaVuSans-63"/>
      <use xlink:href="#DejaVuSans-6f" transform="translate(54.980469 0)"/>
      <use xlink:href="#DejaVuSans-75" transform="translate(116.162109 0)"/>
      <use xlink:href="#DejaVuSans-6e" transform="translate(179.541016 0)"/>
      <use xlink:href="#DejaVuSans-74" transform="translate(242.919922 0)"/>
     </g>
    </g>
   </g>
   <g id="patch_43">
    <path d="M 57.395 246.04 
L 57.395 26.16 
" style="fill: none; stroke: #000000; stroke-width: 0.8; stroke-linejoin: miter; stroke-linecap: square"/>
   </g>
   <g id="patch_44">
    <path d="M 357.266667 246.04 
L 357.266667 26.16 
" style="fill: none; stroke: #000000; stroke-width: 0.8; stroke-linejoin: miter; stroke-linecap: square"/>
   </g>
   <g id="patch_45">
    <path d="M 57.395 246.04 
L 357.266667 246.04 
" style="fill: none; stroke: #000000; stroke-width: 0.8; stroke-linejoin: miter; stroke-linecap: square"/>
   </g>
   <g id="patch_46">
    <path d="M 57.395 26.16 
L 357.266667 26.16 
" style="fill: none; stroke: #000000; stroke-width: 0.8; stroke-linejoin: miter; stroke-linecap: square"/>
   </g>
   <g id="text_18">
    <!-- System size (atoms) -->
    <g transform="translate(146.157083 20.16) scale(0.12 -0.12)">
     <defs>
      <path id="DejaVuSans-53" d="M 3425 4513 
L 3425 3897 
Q 3066 4069 2747 4153 
Q 2428 4238 2131 4238 
Q 1616 4238 1336 4038 
Q 1056 3838 1056 3469 
Q 1056 3159 1242 3001 
Q 1428 2844 1947 2747 
L 2328 2669 
Q 3034 2534 3370 2195 
Q 3706 1856 3706 1288 
Q 3706 609 3251 259 
Q 2797 -91 1919 -91 
Q 1588 -91 1214 -16 
Q 841 59 441 206 
L 441 856 
Q 825 641 1194 531 
Q 1563 422 1919 422 
Q 2459 422 2753 634 
Q 3047 847 3047 1241 
Q 3047 1584 2836 1778 
Q 2625 1972 2144 2069 
L 1759 2144 
Q 1053 2284 737 2584 
Q 422 2884 422 3419 
Q 422 4038 858 4394 
Q 1294 4750 2059 4750 
Q 2388 4750 2728 4690 
Q 3069 4631 3425 4513 
z
" transform="scale(0.015625)"/>
      <path id="DejaVuSans-79" d="M 2059 -325 
Q 1816 -950 1584 -1140 
Q 1353 -1331 966 -1331 
L 506 -1331 
L 506 -850 
L 844 -850 
Q 1081 -850 1212 -737 
Q 1344 -625 1503 -206 
L 1606 56 
L 191 3500 
L 800 3500 
L 1894 763 
L 2988 3500 
L 3597 3500 
L 2059 -325 
z
" transform="scale(0.015625)"/>
      <path id="DejaVuSans-65" d="M 3597 1894 
L 3597 1613 
L 953 1613 
Q 991 1019 1311 708 
Q 1631 397 2203 397 
Q 2534 397 2845 478 
Q 3156 559 3463 722 
L 3463 178 
Q 3153 47 2828 -22 
Q 2503 -91 2169 -91 
Q 1331 -91 842 396 
Q 353 884 353 1716 
Q 353 2575 817 3079 
Q 1281 3584 2069 3584 
Q 2775 3584 3186 3129 
Q 3597 2675 3597 1894 
z
M 3022 2063 
Q 3016 2534 2758 2815 
Q 2500 3097 2075 3097 
Q 1594 3097 1305 2825 
Q 1016 2553 972 2059 
L 3022 2063 
z
" transform="scale(0.015625)"/>
      <path id="DejaVuSans-20" transform="scale(0.015625)"/>
      <path id="DejaVuSans-69" d="M 603 3500 
L 1178 3500 
L 1178 0 
L 603 0 
L 603 3500 
z
M 603 4863 
L 1178 4863 
L 1178 4134 
L 603 4134 
L 603 4863 
z
" transform="scale(0.015625)"/>
      <path id="DejaVuSans-7a" d="M 353 3500 
L 3084 3500 
L 3084 2975 
L 922 459 
L 3084 459 
L 3084 0 
L 275 0 
L 275 525 
L 2438 3041 
L 353 3041 
L 353 3500 
z
" transform="scale(0.015625)"/>
      <path id="DejaVuSans-28" d="M 1984 4856 
Q 1566 4138 1362 3434 
Q 1159 2731 1159 2009 
Q 1159 1288 1364 580 
Q 1569 -128 1984 -844 
L 1484 -844 
Q 1016 -109 783 600 
Q 550 1309 550 2009 
Q 550 2706 781 3412 
Q 1013 4119 1484 4856 
L 1984 4856 
z
" transform="scale(0.015625)"/>
      <path id="DejaVuSans-29" d="M 513 4856 
L 1013 4856 
Q 1481 4119 1714 3412 
Q 1947 2706 1947 2009 
Q 1947 1309 1714 600 
Q 1481 -109 1013 -844 
L 513 -844 
Q 928 -128 1133 580 
Q 1338 1288 1338 2009 
Q 1338 2731 1133 3434 
Q 928 4138 513 4856 
z
" transform="scale(0.015625)"/>
     </defs>
     <use xlink:href="#DejaVuSans-53"/>
     <use xlink:href="#DejaVuSans-79" transform="translate(63.476562 0)"/>
     <use xlink:href="#DejaVuSans-73" transform="translate(122.65625 0)"/>
     <use xlink:href="#DejaVuSans-74" transform="translate(174.755859 0)"/>
     <use xlink:href="#DejaVuSans-65" transform="translate(213.964844 0)"/>
     <use xlink:href="#DejaVuSans-6d" transform="translate(275.488281 0)"/>
     <use xlink:href="#DejaVuSans-20" transform="translate(372.900391 0)"/>
     <use xlink:href="#DejaVuSans-73" transform="translate(404.6875 0)"/>
     <use xlink:href="#DejaVuSans-69" transform="translate(456.787109 0)"/>
     <use xlink:href="#DejaVuSans-7a" transform="translate(484.570312 0)"/>
     <use xlink:href="#DejaVuSans-65" transform="translate(537.060547 0)"/>
     <use xlink:href="#DejaVuSans-20" transform="translate(598.583984 0)"/>
     <use xlink:href="#DejaVuSans-28" transform="translate(630.371094 0)"/>
     <use xlink:href="#DejaVuSans-61" transform="translate(669.384766 0)"/>
     <use xlink:href="#DejaVuSans-74" transform="translate(730.664062 0)"/>
     <use xlink:href="#DejaVuSans-6f" transform="translate(769.873047 0)"/>
     <use xlink:href="#DejaVuSans-6d" transform="translate(831.054688 0)"/>
     <use xlink:href="#DejaVuSans-73" transform="translate(928.466797 0)"/>
     <use xlink:href="#DejaVuSans-29" transform="translate(980.566406 0)"/>
    </g>
   </g>
  </g>
  <g id="axes_2">
   <g id="patch_47">
    <path d="M 413.361667 246.04 
L 713.233333 246.04 
L 713.233333 26.16 
L 413.361667 26.16 
z
" style="fill: #ffffff"/>
   </g>
   <g id="patch_48">
    <path d="M 426.992197 246.04 
L 433.807462 246.04 
L 433.807462 245.985066 
L 426.992197 245.985066 
z
" clip-path="url(#p54c4757f67)" style="fill: #c44e52"/>
   </g>
   <g id="patch_49">
    <path d="M 433.807462 246.04 
L 440.622727 246.04 
L 440.622727 246.04 
L 433.807462 246.04 
z
" clip-path="url(#p54c4757f67)" style="fill: #c44e52"/>
   </g>
   <g id="patch_50">
    <path d="M 440.622727 246.04 
L 447.437992 246.04 
L 447.437992 246.04 
L 440.622727 246.04 
z
" clip-path="url(#p54c4757f67)" style="fill: #c44e52"/>
   </g>
   <g id="patch_51">
    <path d="M 447.437992 246.04 
L 454.253258 246.04 
L 454.253258 246.04 
L 447.437992 246.04 
z
" clip-path="url(#p54c4757f67)" style="fill: #c44e52"/>
   </g>
   <g id="patch_52">
    <path d="M 454.253258 246.04 
L 461.068523 246.04 
L 461.068523 245.985066 
L 454.253258 245.985066 
z
" clip-path="url(#p54c4757f67)" style="fill: #c44e52"/>
   </g>
   <g id="patch_53">
    <path d="M 461.068523 246.04 
L 467.883788 246.04 
L 467.883788 246.04 
L 461.068523 246.04 
z
" clip-path="url(#p54c4757f67)" style="fill: #c44e52"/>
   </g>
   <g id="patch_54">
    <path d="M 467.883788 246.04 
L 474.699053 246.04 
L 474.699053 246.04 
L 467.883788 246.04 
z
" clip-path="url(#p54c4757f67)" style="fill: #c44e52"/>
   </g>
   <g id="patch_55">
    <path d="M 474.699053 246.04 
L 481.514318 246.04 
L 481.514318 246.04 
L 474.699053 246.04 
z
" clip-path="url(#p54c4757f67)" style="fill: #c44e52"/>
   </g>
   <g id="patch_56">
    <path d="M 481.514318 246.04 
L 488.329583 246.04 
L 488.329583 245.985066 
L 481.514318 245.985066 
z
" clip-path="url(#p54c4757f67)" style="fill: #c44e52"/>
   </g>
   <g id="patch_57">
    <path d="M 488.329583 246.04 
L 495.144848 246.04 
L 495.144848 246.04 
L 488.329583 246.04 
z
" clip-path="url(#p54c4757f67)" style="fill: #c44e52"/>
   </g>
   <g id="patch_58">
    <path d="M 495.144848 246.04 
L 501.960114 246.04 
L 501.960114 246.04 
L 495.144848 246.04 
z
" clip-path="url(#p54c4757f67)" style="fill: #c44e52"/>
   </g>
   <g id="patch_59">
    <path d="M 501.960114 246.04 
L 508.775379 246.04 
L 508.775379 246.04 
L 501.960114 246.04 
z
" clip-path="url(#p54c4757f67)" style="fill: #c44e52"/>
   </g>
   <g id="patch_60">
    <path d="M 508.775379 246.04 
L 515.590644 246.04 
L 515.590644 246.04 
L 508.775379 246.04 
z
" clip-path="url(#p54c4757f67)" style="fill: #c44e52"/>
   </g>
   <g id="patch_61">
    <path d="M 515.590644 246.04 
L 522.405909 246.04 
L 522.405909 246.04 
L 515.590644 246.04 
z
" clip-path="url(#p54c4757f67)" style="fill: #c44e52"/>
   </g>
   <g id="patch_62">
    <path d="M 522.405909 246.04 
L 529.221174 246.04 
L 529.221174 246.04 
L 522.405909 246.04 
z
" clip-path="url(#p54c4757f67)" style="fill: #c44e52"/>
   </g>
   <g id="patch_63">
    <path d="M 529.221174 246.04 
L 536.036439 246.04 
L 536.036439 245.985066 
L 529.221174 245.985066 
z
" clip-path="url(#p54c4757f67)" style="fill: #c44e52"/>
   </g>
   <g id="patch_64">
    <path d="M 536.036439 246.04 
L 542.851705 246.04 
L 542.851705 246.04 
L 536.036439 246.04 
z
" clip-path="url(#p54c4757f67)" style="fill: #c44e52"/>
   </g>
   <g id="patch_65">
    <path d="M 542.851705 246.04 
L 549.66697 246.04 
L 549.66697 245.985066 
L 542.851705 245.985066 
z
" clip-path="url(#p54c4757f67)" style="fill: #c44e52"/>
   </g>
   <g id="patch_66">
    <path d="M 549.66697 246.04 
L 556.482235 246.04 
L 556.482235 245.985066 
L 549.66697 245.985066 
z
" clip-path="url(#p54c4757f67)" style="fill: #c44e52"/>
   </g>
   <g id="patch_67">
    <path d="M 556.482235 246.04 
L 563.2975 246.04 
L 563.2975 246.04 
L 556.482235 246.04 
z
" clip-path="url(#p54c4757f67)" style="fill: #c44e52"/>
   </g>
   <g id="patch_68">
    <path d="M 563.2975 246.04 
L 570.112765 246.04 
L 570.112765 246.04 
L 563.2975 246.04 
z
" clip-path="url(#p54c4757f67)" style="fill: #c44e52"/>
   </g>
   <g id="patch_69">
    <path d="M 570.112765 246.04 
L 576.92803 246.04 
L 576.92803 246.04 
L 570.112765 246.04 
z
" clip-path="url(#p54c4757f67)" style="fill: #c44e52"/>
   </g>
   <g id="patch_70">
    <path d="M 576.92803 246.04 
L 583.743295 246.04 
L 583.743295 246.04 
L 576.92803 246.04 
z
" clip-path="url(#p54c4757f67)" style="fill: #c44e52"/>
   </g>
   <g id="patch_71">
    <path d="M 583.743295 246.04 
L 590.558561 246.04 
L 590.558561 246.04 
L 583.743295 246.04 
z
" clip-path="url(#p54c4757f67)" style="fill: #c44e52"/>
   </g>
   <g id="patch_72">
    <path d="M 590.558561 246.04 
L 597.373826 246.04 
L 597.373826 246.04 
L 590.558561 246.04 
z
" clip-path="url(#p54c4757f67)" style="fill: #c44e52"/>
   </g>
   <g id="patch_73">
    <path d="M 597.373826 246.04 
L 604.189091 246.04 
L 604.189091 245.985066 
L 597.373826 245.985066 
z
" clip-path="url(#p54c4757f67)" style="fill: #c44e52"/>
   </g>
   <g id="patch_74">
    <path d="M 604.189091 246.04 
L 611.004356 246.04 
L 611.004356 246.04 
L 604.189091 246.04 
z
" clip-path="url(#p54c4757f67)" style="fill: #c44e52"/>
   </g>
   <g id="patch_75">
    <path d="M 611.004356 246.04 
L 617.819621 246.04 
L 617.819621 245.985066 
L 611.004356 245.985066 
z
" clip-path="url(#p54c4757f67)" style="fill: #c44e52"/>
   </g>
   <g id="patch_76">
    <path d="M 617.819621 246.04 
L 624.634886 246.04 
L 624.634886 245.930131 
L 617.819621 245.930131 
z
" clip-path="url(#p54c4757f67)" style="fill: #c44e52"/>
   </g>
   <g id="patch_77">
    <path d="M 624.634886 246.04 
L 631.450152 246.04 
L 631.450152 245.985066 
L 624.634886 245.985066 
z
" clip-path="url(#p54c4757f67)" style="fill: #c44e52"/>
   </g>
   <g id="patch_78">
    <path d="M 631.450152 246.04 
L 638.265417 246.04 
L 638.265417 245.765329 
L 631.450152 245.765329 
z
" clip-path="url(#p54c4757f67)" style="fill: #c44e52"/>
   </g>
   <g id="patch_79">
    <path d="M 638.265417 246.04 
L 645.080682 246.04 
L 645.080682 245.985066 
L 638.265417 245.985066 
z
" clip-path="url(#p54c4757f67)" style="fill: #c44e52"/>
   </g>
   <g id="patch_80">
    <path d="M 645.080682 246.04 
L 651.895947 246.04 
L 651.895947 245.875197 
L 645.080682 245.875197 
z
" clip-path="url(#p54c4757f67)" style="fill: #c44e52"/>
   </g>
   <g id="patch_81">
    <path d="M 651.895947 246.04 
L 658.711212 246.04 
L 658.711212 245.875197 
L 651.895947 245.875197 
z
" clip-path="url(#p54c4757f67)" style="fill: #c44e52"/>
   </g>
   <g id="patch_82">
    <path d="M 658.711212 246.04 
L 665.526477 246.04 
L 665.526477 245.710394 
L 658.711212 245.710394 
z
" clip-path="url(#p54c4757f67)" style="fill: #c44e52"/>
   </g>
   <g id="patch_83">
    <path d="M 665.526477 246.04 
L 672.341742 246.04 
L 672.341742 244.941314 
L 665.526477 244.941314 
z
" clip-path="url(#p54c4757f67)" style="fill: #c44e52"/>
   </g>
   <g id="patch_84">
    <path d="M 672.341742 246.04 
L 679.157008 246.04 
L 679.157008 243.567957 
L 672.341742 243.567957 
z
" clip-path="url(#p54c4757f67)" style="fill: #c44e52"/>
   </g>
   <g id="patch_85">
    <path d="M 679.157008 246.04 
L 685.972273 246.04 
L 685.972273 235.382747 
L 679.157008 235.382747 
z
" clip-path="url(#p54c4757f67)" style="fill: #c44e52"/>
   </g>
   <g id="patch_86">
    <path d="M 685.972273 246.04 
L 692.787538 246.04 
L 692.787538 196.599137 
L 685.972273 196.599137 
z
" clip-path="url(#p54c4757f67)" style="fill: #c44e52"/>
   </g>
   <g id="patch_87">
    <path d="M 692.787538 246.04 
L 699.602803 246.04 
L 699.602803 36.630476 
L 692.787538 36.630476 
z
" clip-path="url(#p54c4757f67)" style="fill: #c44e52"/>
   </g>
   <g id="matplotlib.axis_3">
    <g id="xtick_9">
     <g id="line2d_16">
      <g>
       <use xlink:href="#m18ae1e9c59" x="435.659167" y="246.04" style="stroke: #000000; stroke-width: 0.8"/>
      </g>
     </g>
     <g id="text_19">
      <!-- −3.5 -->
      <g transform="translate(423.517761 260.638438) scale(0.1 -0.1)">
       <defs>
        <path id="DejaVuSans-2212" d="M 678 2272 
L 4684 2272 
L 4684 1741 
L 678 1741 
L 678 2272 
z
" transform="scale(0.015625)"/>
        <path id="DejaVuSans-2e" d="M 684 794 
L 1344 794 
L 1344 0 
L 684 0 
L 684 794 
z
" transform="scale(0.015625)"/>
       </defs>
       <use xlink:href="#DejaVuSans-2212"/>
       <use xlink:href="#DejaVuSans-33" transform="translate(83.789062 0)"/>
       <use xlink:href="#DejaVuSans-2e" transform="translate(147.412109 0)"/>
       <use xlink:href="#DejaVuSans-35" transform="translate(179.199219 0)"/>
      </g>
     </g>
    </g>
    <g id="xtick_10">
     <g id="line2d_17">
      <g>
       <use xlink:href="#m18ae1e9c59" x="473.393211" y="246.04" style="stroke: #000000; stroke-width: 0.8"/>
      </g>
     </g>
     <g id="text_20">
      <!-- −3.0 -->
      <g transform="translate(461.251805 260.638438) scale(0.1 -0.1)">
       <use xlink:href="#DejaVuSans-2212"/>
       <use xlink:href="#DejaVuSans-33" transform="translate(83.789062 0)"/>
       <use xlink:href="#DejaVuSans-2e" transform="translate(147.412109 0)"/>
       <use xlink:href="#DejaVuSans-30" transform="translate(179.199219 0)"/>
      </g>
     </g>
    </g>
    <g id="xtick_11">
     <g id="line2d_18">
      <g>
       <use xlink:href="#m18ae1e9c59" x="511.127255" y="246.04" style="stroke: #000000; stroke-width: 0.8"/>
      </g>
     </g>
     <g id="text_21">
      <!-- −2.5 -->
      <g transform="translate(498.985849 260.638438) scale(0.1 -0.1)">
       <use xlink:href="#DejaVuSans-2212"/>
       <use xlink:href="#DejaVuSans-32" transform="translate(83.789062 0)"/>
       <use xlink:href="#DejaVuSans-2e" transform="translate(147.412109 0)"/>
       <use xlink:href="#DejaVuSans-35" transform="translate(179.199219 0)"/>
      </g>
     </g>
    </g>
    <g id="xtick_12">
     <g id="line2d_19">
      <g>
       <use xlink:href="#m18ae1e9c59" x="548.861299" y="246.04" style="stroke: #000000; stroke-width: 0.8"/>
      </g>
     </g>
     <g id="text_22">
      <!-- −2.0 -->
      <g transform="translate(536.719893 260.638438) scale(0.1 -0.1)">
       <use xlink:href="#DejaVuSans-2212"/>
       <use xlink:href="#DejaVuSans-32" transform="translate(83.789062 0)"/>
       <use xlink:href="#DejaVuSans-2e" transform="translate(147.412109 0)"/>
       <use xlink:href="#DejaVuSans-30" transform="translate(179.199219 0)"/>
      </g>
     </g>
    </g>
    <g id="xtick_13">
     <g id="line2d_20">
      <g>
       <use xlink:href="#m18ae1e9c59" x="586.595343" y="246.04" style="stroke: #000000; stroke-width: 0.8"/>
      </g>
     </g>
     <g id="text_23">
      <!-- −1.5 -->
      <g transform="translate(574.453937 260.638438) scale(0.1 -0.1)">
       <use xlink:href="#DejaVuSans-2212"/>
       <use xlink:href="#DejaVuSans-31" transform="translate(83.789062 0)"/>
       <use xlink:href="#DejaVuSans-2e" transform="translate(147.412109 0)"/>
       <use xlink:href="#DejaVuSans-35" transform="translate(179.199219 0)"/>
      </g>
     </g>
    </g>
    <g id="xtick_14">
     <g id="line2d_21">
      <g>
       <use xlink:href="#m18ae1e9c59" x="624.329387" y="246.04" style="stroke: #000000; stroke-width: 0.8"/>
      </g>
     </g>
     <g id="text_24">
      <!-- −1.0 -->
      <g transform="translate(612.187981 260.638438) scale(0.1 -0.1)">
       <use xlink:href="#DejaVuSans-2212"/>
       <use xlink:href="#DejaVuSans-31" transform="translate(83.789062 0)"/>
       <use xlink:href="#DejaVuSans-2e" transform="translate(147.412109 0)"/>
       <use xlink:href="#DejaVuSans-30" transform="translate(179.199219 0)"/>
      </g>
     </g>
    </g>
    <g id="xtick_15">
     <g id="line2d_22">
      <g>
       <use xlink:href="#m18ae1e9c59" x="662.063431" y="246.04" style="stroke: #000000; stroke-width: 0.8"/>
      </g>
     </g>
     <g id="text_25">
      <!-- −0.5 -->
      <g transform="translate(649.922025 260.638438) scale(0.1 -0.1)">
       <use xlink:href="#DejaVuSans-2212"/>
       <use xlink:href="#DejaVuSans-30" transform="translate(83.789062 0)"/>
       <use xlink:href="#DejaVuSans-2e" transform="translate(147.412109 0)"/>
       <use xlink:href="#DejaVuSans-35" transform="translate(179.199219 0)"/>
      </g>
     </g>
    </g>
    <g id="xtick_16">
     <g id="line2d_23">
      <g>
       <use xlink:href="#m18ae1e9c59" x="699.797475" y="246.04" style="stroke: #000000; stroke-width: 0.8"/>
      </g>
     </g>
     <g id="text_26">
      <!-- 0.0 -->
      <g transform="translate(691.845912 260.638438) scale(0.1 -0.1)">
       <use xlink:href="#DejaVuSans-30"/>
       <use xlink:href="#DejaVuSans-2e" transform="translate(63.623047 0)"/>
       <use xlink:href="#DejaVuSans-30" transform="translate(95.410156 0)"/>
      </g>
     </g>
    </g>
    <g id="text_27">
     <!-- E (eV) -->
     <g transform="translate(548.150625 274.316562) scale(0.1 -0.1)">
      <defs>
       <path id="DejaVuSans-45" d="M 628 4666 
L 3578 4666 
L 3578 4134 
L 1259 4134 
L 1259 2753 
L 3481 2753 
L 3481 2222 
L 1259 2222 
L 1259 531 
L 3634 531 
L 3634 0 
L 628 0 
L 628 4666 
z
" transform="scale(0.015625)"/>
       <path id="DejaVuSans-56" d="M 1831 0 
L 50 4666 
L 709 4666 
L 2188 738 
L 3669 4666 
L 4325 4666 
L 2547 0 
L 1831 0 
z
" transform="scale(0.015625)"/>
      </defs>
      <use xlink:href="#DejaVuSans-45"/>
      <use xlink:href="#DejaVuSans-20" transform="translate(63.183594 0)"/>
      <use xlink:href="#DejaVuSans-28" transform="translate(94.970703 0)"/>
      <use xlink:href="#DejaVuSans-65" transform="translate(133.984375 0)"/>
      <use xlink:href="#DejaVuSans-56" transform="translate(195.507812 0)"/>
      <use xlink:href="#DejaVuSans-29" transform="translate(263.916016 0)"/>
     </g>
    </g>
    <g id="text_28">
     <!-- 1e6 -->
     <g transform="translate(694.355208 273.316562) scale(0.1 -0.1)">
      <use xlink:href="#DejaVuSans-31"/>
      <use xlink:href="#DejaVuSans-65" transform="translate(63.623047 0)"/>
      <use xlink:href="#DejaVuSans-36" transform="translate(125.146484 0)"/>
     </g>
    </g>
   </g>
   <g id="matplotlib.axis_4">
    <g id="ytick_8">
     <g id="line2d_24">
      <g>
       <use xlink:href="#m67551f8eb3" x="413.361667" y="246.04" style="stroke: #000000; stroke-width: 0.8"/>
      </g>
     </g>
     <g id="text_29">
      <!-- 0 -->
      <g transform="translate(399.999167 249.839219) scale(0.1 -0.1)">
       <use xlink:href="#DejaVuSans-30"/>
      </g>
     </g>
    </g>
    <g id="ytick_9">
     <g id="line2d_25">
      <g>
       <use xlink:href="#m67551f8eb3" x="413.361667" y="218.572854" style="stroke: #000000; stroke-width: 0.8"/>
      </g>
     </g>
     <g id="text_30">
      <!-- 500 -->
      <g transform="translate(387.274167 222.372072) scale(0.1 -0.1)">
       <use xlink:href="#DejaVuSans-35"/>
       <use xlink:href="#DejaVuSans-30" transform="translate(63.623047 0)"/>
       <use xlink:href="#DejaVuSans-30" transform="translate(127.246094 0)"/>
      </g>
     </g>
    </g>
    <g id="ytick_10">
     <g id="line2d_26">
      <g>
       <use xlink:href="#m67551f8eb3" x="413.361667" y="191.105707" style="stroke: #000000; stroke-width: 0.8"/>
      </g>
     </g>
     <g id="text_31">
      <!-- 1000 -->
      <g transform="translate(380.911667 194.904926) scale(0.1 -0.1)">
       <use xlink:href="#DejaVuSans-31"/>
       <use xlink:href="#DejaVuSans-30" transform="translate(63.623047 0)"/>
       <use xlink:href="#DejaVuSans-30" transform="translate(127.246094 0)"/>
       <use xlink:href="#DejaVuSans-30" transform="translate(190.869141 0)"/>
      </g>
     </g>
    </g>
    <g id="ytick_11">
     <g id="line2d_27">
      <g>
       <use xlink:href="#m67551f8eb3" x="413.361667" y="163.638561" style="stroke: #000000; stroke-width: 0.8"/>
      </g>
     </g>
     <g id="text_32">
      <!-- 1500 -->
      <g transform="translate(380.911667 167.43778) scale(0.1 -0.1)">
       <use xlink:href="#DejaVuSans-31"/>
       <use xlink:href="#DejaVuSans-35" transform="translate(63.623047 0)"/>
       <use xlink:href="#DejaVuSans-30" transform="translate(127.246094 0)"/>
       <use xlink:href="#DejaVuSans-30" transform="translate(190.869141 0)"/>
      </g>
     </g>
    </g>
    <g id="ytick_12">
     <g id="line2d_28">
      <g>
       <use xlink:href="#m67551f8eb3" x="413.361667" y="136.171415" style="stroke: #000000; stroke-width: 0.8"/>
      </g>
     </g>
     <g id="text_33">
      <!-- 2000 -->
      <g transform="translate(380.911667 139.970633) scale(0.1 -0.1)">
       <use xlink:href="#DejaVuSans-32"/>
       <use xlink:href="#DejaVuSans-30" transform="translate(63.623047 0)"/>
       <use xlink:href="#DejaVuSans-30" transform="translate(127.246094 0)"/>
       <use xlink:href="#DejaVuSans-30" transform="translate(190.869141 0)"/>
      </g>
     </g>
    </g>
    <g id="ytick_13">
     <g id="line2d_29">
      <g>
       <use xlink:href="#m67551f8eb3" x="413.361667" y="108.704268" style="stroke: #000000; stroke-width: 0.8"/>
      </g>
     </g>
     <g id="text_34">
      <!-- 2500 -->
      <g transform="translate(380.911667 112.503487) scale(0.1 -0.1)">
       <use xlink:href="#DejaVuSans-32"/>
       <use xlink:href="#DejaVuSans-35" transform="translate(63.623047 0)"/>
       <use xlink:href="#DejaVuSans-30" transform="translate(127.246094 0)"/>
       <use xlink:href="#DejaVuSans-30" transform="translate(190.869141 0)"/>
      </g>
     </g>
    </g>
    <g id="ytick_14">
     <g id="line2d_30">
      <g>
       <use xlink:href="#m67551f8eb3" x="413.361667" y="81.237122" style="stroke: #000000; stroke-width: 0.8"/>
      </g>
     </g>
     <g id="text_35">
      <!-- 3000 -->
      <g transform="translate(380.911667 85.036341) scale(0.1 -0.1)">
       <use xlink:href="#DejaVuSans-33"/>
       <use xlink:href="#DejaVuSans-30" transform="translate(63.623047 0)"/>
       <use xlink:href="#DejaVuSans-30" transform="translate(127.246094 0)"/>
       <use xlink:href="#DejaVuSans-30" transform="translate(190.869141 0)"/>
      </g>
     </g>
    </g>
    <g id="ytick_15">
     <g id="line2d_31">
      <g>
       <use xlink:href="#m67551f8eb3" x="413.361667" y="53.769976" style="stroke: #000000; stroke-width: 0.8"/>
      </g>
     </g>
     <g id="text_36">
      <!-- 3500 -->
      <g transform="translate(380.911667 57.569194) scale(0.1 -0.1)">
       <use xlink:href="#DejaVuSans-33"/>
       <use xlink:href="#DejaVuSans-35" transform="translate(63.623047 0)"/>
       <use xlink:href="#DejaVuSans-30" transform="translate(127.246094 0)"/>
       <use xlink:href="#DejaVuSans-30" transform="translate(190.869141 0)"/>
      </g>
     </g>
    </g>
    <g id="ytick_16">
     <g id="line2d_32">
      <g>
       <use xlink:href="#m67551f8eb3" x="413.361667" y="26.302829" style="stroke: #000000; stroke-width: 0.8"/>
      </g>
     </g>
     <g id="text_37">
      <!-- 4000 -->
      <g transform="translate(380.911667 30.102048) scale(0.1 -0.1)">
       <use xlink:href="#DejaVuSans-34"/>
       <use xlink:href="#DejaVuSans-30" transform="translate(63.623047 0)"/>
       <use xlink:href="#DejaVuSans-30" transform="translate(127.246094 0)"/>
       <use xlink:href="#DejaVuSans-30" transform="translate(190.869141 0)"/>
      </g>
     </g>
    </g>
   </g>
   <g id="patch_88">
    <path d="M 413.361667 246.04 
L 413.361667 26.16 
" style="fill: none; stroke: #000000; stroke-width: 0.8; stroke-linejoin: miter; stroke-linecap: square"/>
   </g>
   <g id="patch_89">
    <path d="M 713.233333 246.04 
L 713.233333 26.16 
" style="fill: none; stroke: #000000; stroke-width: 0.8; stroke-linejoin: miter; stroke-linecap: square"/>
   </g>
   <g id="patch_90">
    <path d="M 413.361667 246.04 
L 713.233333 246.04 
" style="fill: none; stroke: #000000; stroke-width: 0.8; stroke-linejoin: miter; stroke-linecap: square"/>
   </g>
   <g id="patch_91">
    <path d="M 413.361667 26.16 
L 713.233333 26.16 
" style="fill: none; stroke: #000000; stroke-width: 0.8; stroke-linejoin: miter; stroke-linecap: square"/>
   </g>
   <g id="text_38">
    <!-- Total energy (raw, eV) -->
    <g transform="translate(497.221563 20.16) scale(0.12 -0.12)">
     <defs>
      <path id="DejaVuSans-54" d="M -19 4666 
L 3928 4666 
L 3928 4134 
L 2272 4134 
L 2272 0 
L 1638 0 
L 1638 4134 
L -19 4134 
L -19 4666 
z
" transform="scale(0.015625)"/>
      <path id="DejaVuSans-6c" d="M 603 4863 
L 1178 4863 
L 1178 0 
L 603 0 
L 603 4863 
z
" transform="scale(0.015625)"/>
      <path id="DejaVuSans-72" d="M 2631 2963 
Q 2534 3019 2420 3045 
Q 2306 3072 2169 3072 
Q 1681 3072 1420 2755 
Q 1159 2438 1159 1844 
L 1159 0 
L 581 0 
L 581 3500 
L 1159 3500 
L 1159 2956 
Q 1341 3275 1631 3429 
Q 1922 3584 2338 3584 
Q 2397 3584 2469 3576 
Q 2541 3569 2628 3553 
L 2631 2963 
z
" transform="scale(0.015625)"/>
      <path id="DejaVuSans-67" d="M 2906 1791 
Q 2906 2416 2648 2759 
Q 2391 3103 1925 3103 
Q 1463 3103 1205 2759 
Q 947 2416 947 1791 
Q 947 1169 1205 825 
Q 1463 481 1925 481 
Q 2391 481 2648 825 
Q 2906 1169 2906 1791 
z
M 3481 434 
Q 3481 -459 3084 -895 
Q 2688 -1331 1869 -1331 
Q 1566 -1331 1297 -1286 
Q 1028 -1241 775 -1147 
L 775 -588 
Q 1028 -725 1275 -790 
Q 1522 -856 1778 -856 
Q 2344 -856 2625 -561 
Q 2906 -266 2906 331 
L 2906 616 
Q 2728 306 2450 153 
Q 2172 0 1784 0 
Q 1141 0 747 490 
Q 353 981 353 1791 
Q 353 2603 747 3093 
Q 1141 3584 1784 3584 
Q 2172 3584 2450 3431 
Q 2728 3278 2906 2969 
L 2906 3500 
L 3481 3500 
L 3481 434 
z
" transform="scale(0.015625)"/>
      <path id="DejaVuSans-77" d="M 269 3500 
L 844 3500 
L 1563 769 
L 2278 3500 
L 2956 3500 
L 3675 769 
L 4391 3500 
L 4966 3500 
L 4050 0 
L 3372 0 
L 2619 2869 
L 1863 0 
L 1184 0 
L 269 3500 
z
" transform="scale(0.015625)"/>
      <path id="DejaVuSans-2c" d="M 750 794 
L 1409 794 
L 1409 256 
L 897 -744 
L 494 -744 
L 750 256 
L 750 794 
z
" transform="scale(0.015625)"/>
     </defs>
     <use xlink:href="#DejaVuSans-54"/>
     <use xlink:href="#DejaVuSans-6f" transform="translate(44.083984 0)"/>
     <use xlink:href="#DejaVuSans-74" transform="translate(105.265625 0)"/>
     <use xlink:href="#DejaVuSans-61" transform="translate(144.474609 0)"/>
     <use xlink:href="#DejaVuSans-6c" transform="translate(205.753906 0)"/>
     <use xlink:href="#DejaVuSans-20" transform="translate(233.537109 0)"/>
     <use xlink:href="#DejaVuSans-65" transform="translate(265.324219 0)"/>
     <use xlink:href="#DejaVuSans-6e" transform="translate(326.847656 0)"/>
     <use xlink:href="#DejaVuSans-65" transform="translate(390.226562 0)"/>
     <use xlink:href="#DejaVuSans-72" transform="translate(451.75 0)"/>
     <use xlink:href="#DejaVuSans-67" transform="translate(491.113281 0)"/>
     <use xlink:href="#DejaVuSans-79" transform="translate(554.589844 0)"/>
     <use xlink:href="#DejaVuSans-20" transform="translate(613.769531 0)"/>
     <use xlink:href="#DejaVuSans-28" transform="translate(645.556641 0)"/>
     <use xlink:href="#DejaVuSans-72" transform="translate(684.570312 0)"/>
     <use xlink:href="#DejaVuSans-61" transform="translate(725.683594 0)"/>
     <use xlink:href="#DejaVuSans-77" transform="translate(786.962891 0)"/>
     <use xlink:href="#DejaVuSans-2c" transform="translate(868.75 0)"/>
     <use xlink:href="#DejaVuSans-20" transform="translate(900.537109 0)"/>
     <use xlink:href="#DejaVuSans-65" transform="translate(932.324219 0)"/>
     <use xlink:href="#DejaVuSans-56" transform="translate(993.847656 0)"/>
     <use xlink:href="#DejaVuSans-29" transform="translate(1062.255859 0)"/>
    </g>
   </g>
  </g>
  <g id="axes_3">
   <g id="patch_92">
    <path d="M 769.328333 246.04 
L 1069.2 246.04 
L 1069.2 26.16 
L 769.328333 26.16 
z
" style="fill: #ffffff"/>
   </g>
   <g id="patch_93">
    <path d="M 782.958864 246.04 
L 797.694572 246.04 
L 797.694572 36.630476 
L 782.958864 36.630476 
z
" clip-path="url(#p89db94f4e6)" style="fill: #55a868"/>
   </g>
   <g id="patch_94">
    <path d="M 801.378499 246.04 
L 816.114208 246.04 
L 816.114208 111.591973 
L 801.378499 111.591973 
z
" clip-path="url(#p89db94f4e6)" style="fill: #55a868"/>
   </g>
   <g id="patch_95">
    <path d="M 819.798135 246.04 
L 834.533843 246.04 
L 834.533843 210.274107 
L 819.798135 210.274107 
z
" clip-path="url(#p89db94f4e6)" style="fill: #55a868"/>
   </g>
   <g id="patch_96">
    <path d="M 838.21777 246.04 
L 852.953479 246.04 
L 852.953479 221.226562 
L 838.21777 221.226562 
z
" clip-path="url(#p89db94f4e6)" style="fill: #55a868"/>
   </g>
   <g id="patch_97">
    <path d="M 856.637406 246.04 
L 871.373114 246.04 
L 871.373114 241.681027 
L 856.637406 241.681027 
z
" clip-path="url(#p89db94f4e6)" style="fill: #55a868"/>
   </g>
   <g id="patch_98">
    <path d="M 875.057041 246.04 
L 889.79275 246.04 
L 889.79275 241.803298 
L 875.057041 241.803298 
z
" clip-path="url(#p89db94f4e6)" style="fill: #55a868"/>
   </g>
   <g id="patch_99">
    <path d="M 893.476677 246.04 
L 908.212385 246.04 
L 908.212385 243.475359 
L 893.476677 243.475359 
z
" clip-path="url(#p89db94f4e6)" style="fill: #55a868"/>
   </g>
   <g id="patch_100">
    <path d="M 911.896312 246.04 
L 926.632021 246.04 
L 926.632021 243.811605 
L 911.896312 243.811605 
z
" clip-path="url(#p89db94f4e6)" style="fill: #55a868"/>
   </g>
   <g id="patch_101">
    <path d="M 930.315948 246.04 
L 945.051656 246.04 
L 945.051656 244.722526 
L 930.315948 244.722526 
z
" clip-path="url(#p89db94f4e6)" style="fill: #55a868"/>
   </g>
   <g id="patch_102">
    <path d="M 948.735584 246.04 
L 963.471292 246.04 
L 963.471292 245.462268 
L 948.735584 245.462268 
z
" clip-path="url(#p89db94f4e6)" style="fill: #55a868"/>
   </g>
   <g id="patch_103">
    <path d="M 967.155219 246.04 
L 981.890928 246.04 
L 981.890928 245.575369 
L 967.155219 245.575369 
z
" clip-path="url(#p89db94f4e6)" style="fill: #55a868"/>
   </g>
   <g id="patch_104">
    <path d="M 985.574855 246.04 
L 1000.310563 246.04 
L 1000.310563 245.647203 
L 985.574855 245.647203 
z
" clip-path="url(#p89db94f4e6)" style="fill: #55a868"/>
   </g>
   <g id="patch_105">
    <path d="M 1003.99449 246.04 
L 1018.730199 246.04 
L 1018.730199 245.691527 
L 1003.99449 245.691527 
z
" clip-path="url(#p89db94f4e6)" style="fill: #55a868"/>
   </g>
   <g id="patch_106">
    <path d="M 1022.414126 246.04 
L 1037.149834 246.04 
L 1037.149834 245.86882 
L 1022.414126 245.86882 
z
" clip-path="url(#p89db94f4e6)" style="fill: #55a868"/>
   </g>
   <g id="patch_107">
    <path d="M 1040.833761 246.04 
L 1055.56947 246.04 
L 1055.56947 245.908558 
L 1040.833761 245.908558 
z
" clip-path="url(#p89db94f4e6)" style="fill: #55a868"/>
   </g>
   <g id="matplotlib.axis_5">
    <g id="xtick_17">
     <g id="line2d_33">
      <g>
       <use xlink:href="#m18ae1e9c59" x="790.326718" y="246.04" style="stroke: #000000; stroke-width: 0.8"/>
      </g>
     </g>
     <g id="text_39">
      <!-- H -->
      <g transform="translate(786.566562 260.638438) scale(0.1 -0.1)">
       <defs>
        <path id="DejaVuSans-48" d="M 628 4666 
L 1259 4666 
L 1259 2753 
L 3553 2753 
L 3553 4666 
L 4184 4666 
L 4184 0 
L 3553 0 
L 3553 2222 
L 1259 2222 
L 1259 0 
L 628 0 
L 628 4666 
z
" transform="scale(0.015625)"/>
       </defs>
       <use xlink:href="#DejaVuSans-48"/>
      </g>
     </g>
    </g>
    <g id="xtick_18">
     <g id="line2d_34">
      <g>
       <use xlink:href="#m18ae1e9c59" x="808.746353" y="246.04" style="stroke: #000000; stroke-width: 0.8"/>
      </g>
     </g>
     <g id="text_40">
      <!-- C -->
      <g transform="translate(805.254947 260.638438) scale(0.1 -0.1)">
       <defs>
        <path id="DejaVuSans-43" d="M 4122 4306 
L 4122 3641 
Q 3803 3938 3442 4084 
Q 3081 4231 2675 4231 
Q 1875 4231 1450 3742 
Q 1025 3253 1025 2328 
Q 1025 1406 1450 917 
Q 1875 428 2675 428 
Q 3081 428 3442 575 
Q 3803 722 4122 1019 
L 4122 359 
Q 3791 134 3420 21 
Q 3050 -91 2638 -91 
Q 1578 -91 968 557 
Q 359 1206 359 2328 
Q 359 3453 968 4101 
Q 1578 4750 2638 4750 
Q 3056 4750 3426 4639 
Q 3797 4528 4122 4306 
z
" transform="scale(0.015625)"/>
       </defs>
       <use xlink:href="#DejaVuSans-43"/>
      </g>
     </g>
    </g>
    <g id="xtick_19">
     <g id="line2d_35">
      <g>
       <use xlink:href="#m18ae1e9c59" x="827.165989" y="246.04" style="stroke: #000000; stroke-width: 0.8"/>
      </g>
     </g>
     <g id="text_41">
      <!-- O -->
      <g transform="translate(823.230051 260.638438) scale(0.1 -0.1)">
       <defs>
        <path id="DejaVuSans-4f" d="M 2522 4238 
Q 1834 4238 1429 3725 
Q 1025 3213 1025 2328 
Q 1025 1447 1429 934 
Q 1834 422 2522 422 
Q 3209 422 3611 934 
Q 4013 1447 4013 2328 
Q 4013 3213 3611 3725 
Q 3209 4238 2522 4238 
z
M 2522 4750 
Q 3503 4750 4090 4092 
Q 4678 3434 4678 2328 
Q 4678 1225 4090 567 
Q 3503 -91 2522 -91 
Q 1538 -91 948 565 
Q 359 1222 359 2328 
Q 359 3434 948 4092 
Q 1538 4750 2522 4750 
z
" transform="scale(0.015625)"/>
       </defs>
       <use xlink:href="#DejaVuSans-4f"/>
      </g>
     </g>
    </g>
    <g id="xtick_20">
     <g id="line2d_36">
      <g>
       <use xlink:href="#m18ae1e9c59" x="845.585624" y="246.04" style="stroke: #000000; stroke-width: 0.8"/>
      </g>
     </g>
     <g id="text_42">
      <!-- N -->
      <g transform="translate(841.844999 260.638438) scale(0.1 -0.1)">
       <defs>
        <path id="DejaVuSans-4e" d="M 628 4666 
L 1478 4666 
L 3547 763 
L 3547 4666 
L 4159 4666 
L 4159 0 
L 3309 0 
L 1241 3903 
L 1241 0 
L 628 0 
L 628 4666 
z
" transform="scale(0.015625)"/>
       </defs>
       <use xlink:href="#DejaVuSans-4e"/>
      </g>
     </g>
    </g>
    <g id="xtick_21">
     <g id="line2d_37">
      <g>
       <use xlink:href="#m18ae1e9c59" x="864.00526" y="246.04" style="stroke: #000000; stroke-width: 0.8"/>
      </g>
     </g>
     <g id="text_43">
      <!-- F -->
      <g transform="translate(861.129479 260.638438) scale(0.1 -0.1)">
       <defs>
        <path id="DejaVuSans-46" d="M 628 4666 
L 3309 4666 
L 3309 4134 
L 1259 4134 
L 1259 2759 
L 3109 2759 
L 3109 2228 
L 1259 2228 
L 1259 0 
L 628 0 
L 628 4666 
z
" transform="scale(0.015625)"/>
       </defs>
       <use xlink:href="#DejaVuSans-46"/>
      </g>
     </g>
    </g>
    <g id="xtick_22">
     <g id="line2d_38">
      <g>
       <use xlink:href="#m18ae1e9c59" x="882.424896" y="246.04" style="stroke: #000000; stroke-width: 0.8"/>
      </g>
     </g>
     <g id="text_44">
      <!-- S -->
      <g transform="translate(879.250677 260.638438) scale(0.1 -0.1)">
       <use xlink:href="#DejaVuSans-53"/>
      </g>
     </g>
    </g>
    <g id="xtick_23">
     <g id="line2d_39">
      <g>
       <use xlink:href="#m18ae1e9c59" x="900.844531" y="246.04" style="stroke: #000000; stroke-width: 0.8"/>
      </g>
     </g>
     <g id="text_45">
      <!-- Cl -->
      <g transform="translate(895.964062 260.638438) scale(0.1 -0.1)">
       <use xlink:href="#DejaVuSans-43"/>
       <use xlink:href="#DejaVuSans-6c" transform="translate(69.824219 0)"/>
      </g>
     </g>
    </g>
    <g id="xtick_24">
     <g id="line2d_40">
      <g>
       <use xlink:href="#m18ae1e9c59" x="919.264167" y="246.04" style="stroke: #000000; stroke-width: 0.8"/>
      </g>
     </g>
     <g id="text_46">
      <!-- P -->
      <g transform="translate(916.249323 260.638438) scale(0.1 -0.1)">
       <defs>
        <path id="DejaVuSans-50" d="M 1259 4147 
L 1259 2394 
L 2053 2394 
Q 2494 2394 2734 2622 
Q 2975 2850 2975 3272 
Q 2975 3691 2734 3919 
Q 2494 4147 2053 4147 
L 1259 4147 
z
M 628 4666 
L 2053 4666 
Q 2838 4666 3239 4311 
Q 3641 3956 3641 3272 
Q 3641 2581 3239 2228 
Q 2838 1875 2053 1875 
L 1259 1875 
L 1259 0 
L 628 0 
L 628 4666 
z
" transform="scale(0.015625)"/>
       </defs>
       <use xlink:href="#DejaVuSans-50"/>
      </g>
     </g>
    </g>
    <g id="xtick_25">
     <g id="line2d_41">
      <g>
       <use xlink:href="#m18ae1e9c59" x="937.683802" y="246.04" style="stroke: #000000; stroke-width: 0.8"/>
      </g>
     </g>
     <g id="text_47">
      <!-- Br -->
      <g transform="translate(932.197865 260.638438) scale(0.1 -0.1)">
       <defs>
        <path id="DejaVuSans-42" d="M 1259 2228 
L 1259 519 
L 2272 519 
Q 2781 519 3026 730 
Q 3272 941 3272 1375 
Q 3272 1813 3026 2020 
Q 2781 2228 2272 2228 
L 1259 2228 
z
M 1259 4147 
L 1259 2741 
L 2194 2741 
Q 2656 2741 2882 2914 
Q 3109 3088 3109 3444 
Q 3109 3797 2882 3972 
Q 2656 4147 2194 4147 
L 1259 4147 
z
M 628 4666 
L 2241 4666 
Q 2963 4666 3353 4366 
Q 3744 4066 3744 3513 
Q 3744 3084 3544 2831 
Q 3344 2578 2956 2516 
Q 3422 2416 3680 2098 
Q 3938 1781 3938 1306 
Q 3938 681 3513 340 
Q 3088 0 2303 0 
L 628 0 
L 628 4666 
z
" transform="scale(0.015625)"/>
       </defs>
       <use xlink:href="#DejaVuSans-42"/>
       <use xlink:href="#DejaVuSans-72" transform="translate(68.603516 0)"/>
      </g>
     </g>
    </g>
    <g id="xtick_26">
     <g id="line2d_42">
      <g>
       <use xlink:href="#m18ae1e9c59" x="956.103438" y="246.04" style="stroke: #000000; stroke-width: 0.8"/>
      </g>
     </g>
     <g id="text_48">
      <!-- Si -->
      <g transform="translate(951.540157 260.638438) scale(0.1 -0.1)">
       <use xlink:href="#DejaVuSans-53"/>
       <use xlink:href="#DejaVuSans-69" transform="translate(63.476562 0)"/>
      </g>
     </g>
    </g>
    <g id="xtick_27">
     <g id="line2d_43">
      <g>
       <use xlink:href="#m18ae1e9c59" x="974.523073" y="246.04" style="stroke: #000000; stroke-width: 0.8"/>
      </g>
     </g>
     <g id="text_49">
      <!-- I -->
      <g transform="translate(973.048073 260.638438) scale(0.1 -0.1)">
       <defs>
        <path id="DejaVuSans-49" d="M 628 4666 
L 1259 4666 
L 1259 0 
L 628 0 
L 628 4666 
z
" transform="scale(0.015625)"/>
       </defs>
       <use xlink:href="#DejaVuSans-49"/>
      </g>
     </g>
    </g>
    <g id="xtick_28">
     <g id="line2d_44">
      <g>
       <use xlink:href="#m18ae1e9c59" x="992.942709" y="246.04" style="stroke: #000000; stroke-width: 0.8"/>
      </g>
     </g>
     <g id="text_50">
      <!-- B -->
      <g transform="translate(989.51224 260.638438) scale(0.1 -0.1)">
       <use xlink:href="#DejaVuSans-42"/>
      </g>
     </g>
    </g>
    <g id="xtick_29">
     <g id="line2d_45">
      <g>
       <use xlink:href="#m18ae1e9c59" x="1011.362344" y="246.04" style="stroke: #000000; stroke-width: 0.8"/>
      </g>
     </g>
     <g id="text_51">
      <!-- Se -->
      <g transform="translate(1005.111563 260.638438) scale(0.1 -0.1)">
       <use xlink:href="#DejaVuSans-53"/>
       <use xlink:href="#DejaVuSans-65" transform="translate(63.476562 0)"/>
      </g>
     </g>
    </g>
    <g id="xtick_30">
     <g id="line2d_46">
      <g>
       <use xlink:href="#m18ae1e9c59" x="1029.78198" y="246.04" style="stroke: #000000; stroke-width: 0.8"/>
      </g>
     </g>
     <g id="text_52">
      <!-- As -->
      <g transform="translate(1023.75698 260.638438) scale(0.1 -0.1)">
       <defs>
        <path id="DejaVuSans-41" d="M 2188 4044 
L 1331 1722 
L 3047 1722 
L 2188 4044 
z
M 1831 4666 
L 2547 4666 
L 4325 0 
L 3669 0 
L 3244 1197 
L 1141 1197 
L 716 0 
L 50 0 
L 1831 4666 
z
" transform="scale(0.015625)"/>
       </defs>
       <use xlink:href="#DejaVuSans-41"/>
       <use xlink:href="#DejaVuSans-73" transform="translate(68.408203 0)"/>
      </g>
     </g>
    </g>
    <g id="xtick_31">
     <g id="line2d_47">
      <g>
       <use xlink:href="#m18ae1e9c59" x="1048.201615" y="246.04" style="stroke: #000000; stroke-width: 0.8"/>
      </g>
     </g>
     <g id="text_53">
      <!-- Te -->
      <g transform="translate(1042.921147 260.638438) scale(0.1 -0.1)">
       <use xlink:href="#DejaVuSans-54"/>
       <use xlink:href="#DejaVuSans-65" transform="translate(44.083984 0)"/>
      </g>
     </g>
    </g>
    <g id="text_54">
     <!-- element -->
     <g transform="translate(898.646198 274.316562) scale(0.1 -0.1)">
      <use xlink:href="#DejaVuSans-65"/>
      <use xlink:href="#DejaVuSans-6c" transform="translate(61.523438 0)"/>
      <use xlink:href="#DejaVuSans-65" transform="translate(89.306641 0)"/>
      <use xlink:href="#DejaVuSans-6d" transform="translate(150.830078 0)"/>
      <use xlink:href="#DejaVuSans-65" transform="translate(248.242188 0)"/>
      <use xlink:href="#DejaVuSans-6e" transform="translate(309.765625 0)"/>
      <use xlink:href="#DejaVuSans-74" transform="translate(373.144531 0)"/>
     </g>
    </g>
   </g>
   <g id="matplotlib.axis_6">
    <g id="ytick_17">
     <g id="line2d_48">
      <g>
       <use xlink:href="#m67551f8eb3" x="769.328333" y="246.04" style="stroke: #000000; stroke-width: 0.8"/>
      </g>
     </g>
     <g id="text_55">
      <!-- 0 -->
      <g transform="translate(755.965833 249.839219) scale(0.1 -0.1)">
       <use xlink:href="#DejaVuSans-30"/>
      </g>
     </g>
    </g>
    <g id="ytick_18">
     <g id="line2d_49">
      <g>
       <use xlink:href="#m67551f8eb3" x="769.328333" y="215.472167" style="stroke: #000000; stroke-width: 0.8"/>
      </g>
     </g>
     <g id="text_56">
      <!-- 20000 -->
      <g transform="translate(730.515833 219.271386) scale(0.1 -0.1)">
       <use xlink:href="#DejaVuSans-32"/>
       <use xlink:href="#DejaVuSans-30" transform="translate(63.623047 0)"/>
       <use xlink:href="#DejaVuSans-30" transform="translate(127.246094 0)"/>
       <use xlink:href="#DejaVuSans-30" transform="translate(190.869141 0)"/>
       <use xlink:href="#DejaVuSans-30" transform="translate(254.492188 0)"/>
      </g>
     </g>
    </g>
    <g id="ytick_19">
     <g id="line2d_50">
      <g>
       <use xlink:href="#m67551f8eb3" x="769.328333" y="184.904334" style="stroke: #000000; stroke-width: 0.8"/>
      </g>
     </g>
     <g id="text_57">
      <!-- 40000 -->
      <g transform="translate(730.515833 188.703553) scale(0.1 -0.1)">
       <use xlink:href="#DejaVuSans-34"/>
       <use xlink:href="#DejaVuSans-30" transform="translate(63.623047 0)"/>
       <use xlink:href="#DejaVuSans-30" transform="translate(127.246094 0)"/>
       <use xlink:href="#DejaVuSans-30" transform="translate(190.869141 0)"/>
       <use xlink:href="#DejaVuSans-30" transform="translate(254.492188 0)"/>
      </g>
     </g>
    </g>
    <g id="ytick_20">
     <g id="line2d_51">
      <g>
       <use xlink:href="#m67551f8eb3" x="769.328333" y="154.336502" style="stroke: #000000; stroke-width: 0.8"/>
      </g>
     </g>
     <g id="text_58">
      <!-- 60000 -->
      <g transform="translate(730.515833 158.13572) scale(0.1 -0.1)">
       <use xlink:href="#DejaVuSans-36"/>
       <use xlink:href="#DejaVuSans-30" transform="translate(63.623047 0)"/>
       <use xlink:href="#DejaVuSans-30" transform="translate(127.246094 0)"/>
       <use xlink:href="#DejaVuSans-30" transform="translate(190.869141 0)"/>
       <use xlink:href="#DejaVuSans-30" transform="translate(254.492188 0)"/>
      </g>
     </g>
    </g>
    <g id="ytick_21">
     <g id="line2d_52">
      <g>
       <use xlink:href="#m67551f8eb3" x="769.328333" y="123.768669" style="stroke: #000000; stroke-width: 0.8"/>
      </g>
     </g>
     <g id="text_59">
      <!-- 80000 -->
      <g transform="translate(730.515833 127.567888) scale(0.1 -0.1)">
       <use xlink:href="#DejaVuSans-38"/>
       <use xlink:href="#DejaVuSans-30" transform="translate(63.623047 0)"/>
       <use xlink:href="#DejaVuSans-30" transform="translate(127.246094 0)"/>
       <use xlink:href="#DejaVuSans-30" transform="translate(190.869141 0)"/>
       <use xlink:href="#DejaVuSans-30" transform="translate(254.492188 0)"/>
      </g>
     </g>
    </g>
    <g id="ytick_22">
     <g id="line2d_53">
      <g>
       <use xlink:href="#m67551f8eb3" x="769.328333" y="93.200836" style="stroke: #000000; stroke-width: 0.8"/>
      </g>
     </g>
     <g id="text_60">
      <!-- 100000 -->
      <g transform="translate(724.153333 97.000055) scale(0.1 -0.1)">
       <use xlink:href="#DejaVuSans-31"/>
       <use xlink:href="#DejaVuSans-30" transform="translate(63.623047 0)"/>
       <use xlink:href="#DejaVuSans-30" transform="translate(127.246094 0)"/>
       <use xlink:href="#DejaVuSans-30" transform="translate(190.869141 0)"/>
       <use xlink:href="#DejaVuSans-30" transform="translate(254.492188 0)"/>
       <use xlink:href="#DejaVuSans-30" transform="translate(318.115234 0)"/>
      </g>
     </g>
    </g>
    <g id="ytick_23">
     <g id="line2d_54">
      <g>
       <use xlink:href="#m67551f8eb3" x="769.328333" y="62.633003" style="stroke: #000000; stroke-width: 0.8"/>
      </g>
     </g>
     <g id="text_61">
      <!-- 120000 -->
      <g transform="translate(724.153333 66.432222) scale(0.1 -0.1)">
       <use xlink:href="#DejaVuSans-31"/>
       <use xlink:href="#DejaVuSans-32" transform="translate(63.623047 0)"/>
       <use xlink:href="#DejaVuSans-30" transform="translate(127.246094 0)"/>
       <use xlink:href="#DejaVuSans-30" transform="translate(190.869141 0)"/>
       <use xlink:href="#DejaVuSans-30" transform="translate(254.492188 0)"/>
       <use xlink:href="#DejaVuSans-30" transform="translate(318.115234 0)"/>
      </g>
     </g>
    </g>
    <g id="ytick_24">
     <g id="line2d_55">
      <g>
       <use xlink:href="#m67551f8eb3" x="769.328333" y="32.06517" style="stroke: #000000; stroke-width: 0.8"/>
      </g>
     </g>
     <g id="text_62">
      <!-- 140000 -->
      <g transform="translate(724.153333 35.864389) scale(0.1 -0.1)">
       <use xlink:href="#DejaVuSans-31"/>
       <use xlink:href="#DejaVuSans-34" transform="translate(63.623047 0)"/>
       <use xlink:href="#DejaVuSans-30" transform="translate(127.246094 0)"/>
       <use xlink:href="#DejaVuSans-30" transform="translate(190.869141 0)"/>
       <use xlink:href="#DejaVuSans-30" transform="translate(254.492188 0)"/>
       <use xlink:href="#DejaVuSans-30" transform="translate(318.115234 0)"/>
      </g>
     </g>
    </g>
   </g>
   <g id="patch_108">
    <path d="M 769.328333 246.04 
L 769.328333 26.16 
" style="fill: none; stroke: #000000; stroke-width: 0.8; stroke-linejoin: miter; stroke-linecap: square"/>
   </g>
   <g id="patch_109">
    <path d="M 1069.2 246.04 
L 1069.2 26.16 
" style="fill: none; stroke: #000000; stroke-width: 0.8; stroke-linejoin: miter; stroke-linecap: square"/>
   </g>
   <g id="patch_110">
    <path d="M 769.328333 246.04 
L 1069.2 246.04 
" style="fill: none; stroke: #000000; stroke-width: 0.8; stroke-linejoin: miter; stroke-linecap: square"/>
   </g>
   <g id="patch_111">
    <path d="M 769.328333 26.16 
L 1069.2 26.16 
" style="fill: none; stroke: #000000; stroke-width: 0.8; stroke-linejoin: miter; stroke-linecap: square"/>
   </g>
   <g id="text_63">
    <!-- Top-15 element frequency -->
    <g transform="translate(840.692292 20.16) scale(0.12 -0.12)">
     <defs>
      <path id="DejaVuSans-70" d="M 1159 525 
L 1159 -1331 
L 581 -1331 
L 581 3500 
L 1159 3500 
L 1159 2969 
Q 1341 3281 1617 3432 
Q 1894 3584 2278 3584 
Q 2916 3584 3314 3078 
Q 3713 2572 3713 1747 
Q 3713 922 3314 415 
Q 2916 -91 2278 -91 
Q 1894 -91 1617 61 
Q 1341 213 1159 525 
z
M 3116 1747 
Q 3116 2381 2855 2742 
Q 2594 3103 2138 3103 
Q 1681 3103 1420 2742 
Q 1159 2381 1159 1747 
Q 1159 1113 1420 752 
Q 1681 391 2138 391 
Q 2594 391 2855 752 
Q 3116 1113 3116 1747 
z
" transform="scale(0.015625)"/>
      <path id="DejaVuSans-2d" d="M 313 2009 
L 1997 2009 
L 1997 1497 
L 313 1497 
L 313 2009 
z
" transform="scale(0.015625)"/>
      <path id="DejaVuSans-66" d="M 2375 4863 
L 2375 4384 
L 1825 4384 
Q 1516 4384 1395 4259 
Q 1275 4134 1275 3809 
L 1275 3500 
L 2222 3500 
L 2222 3053 
L 1275 3053 
L 1275 0 
L 697 0 
L 697 3053 
L 147 3053 
L 147 3500 
L 697 3500 
L 697 3744 
Q 697 4328 969 4595 
Q 1241 4863 1831 4863 
L 2375 4863 
z
" transform="scale(0.015625)"/>
      <path id="DejaVuSans-71" d="M 947 1747 
Q 947 1113 1208 752 
Q 1469 391 1925 391 
Q 2381 391 2643 752 
Q 2906 1113 2906 1747 
Q 2906 2381 2643 2742 
Q 2381 3103 1925 3103 
Q 1469 3103 1208 2742 
Q 947 2381 947 1747 
z
M 2906 525 
Q 2725 213 2448 61 
Q 2172 -91 1784 -91 
Q 1150 -91 751 415 
Q 353 922 353 1747 
Q 353 2572 751 3078 
Q 1150 3584 1784 3584 
Q 2172 3584 2448 3432 
Q 2725 3281 2906 2969 
L 2906 3500 
L 3481 3500 
L 3481 -1331 
L 2906 -1331 
L 2906 525 
z
" transform="scale(0.015625)"/>
     </defs>
     <use xlink:href="#DejaVuSans-54"/>
     <use xlink:href="#DejaVuSans-6f" transform="translate(44.083984 0)"/>
     <use xlink:href="#DejaVuSans-70" transform="translate(105.265625 0)"/>
     <use xlink:href="#DejaVuSans-2d" transform="translate(168.742188 0)"/>
     <use xlink:href="#DejaVuSans-31" transform="translate(204.826172 0)"/>
     <use xlink:href="#DejaVuSans-35" transform="translate(268.449219 0)"/>
     <use xlink:href="#DejaVuSans-20" transform="translate(332.072266 0)"/>
     <use xlink:href="#DejaVuSans-65" transform="translate(363.859375 0)"/>
     <use xlink:href="#DejaVuSans-6c" transform="translate(425.382812 0)"/>
     <use xlink:href="#DejaVuSans-65" transform="translate(453.166016 0)"/>
     <use xlink:href="#DejaVuSans-6d" transform="translate(514.689453 0)"/>
     <use xlink:href="#DejaVuSans-65" transform="translate(612.101562 0)"/>
     <use xlink:href="#DejaVuSans-6e" transform="translate(673.625 0)"/>
     <use xlink:href="#DejaVuSans-74" transform="translate(737.003906 0)"/>
     <use xlink:href="#DejaVuSans-20" transform="translate(776.212891 0)"/>
     <use xlink:href="#DejaVuSans-66" transform="translate(808 0)"/>
     <use xlink:href="#DejaVuSans-72" transform="translate(843.205078 0)"/>
     <use xlink:href="#DejaVuSans-65" transform="translate(882.068359 0)"/>
     <use xlink:href="#DejaVuSans-71" transform="translate(943.591797 0)"/>
     <use xlink:href="#DejaVuSans-75" transform="translate(1007.068359 0)"/>
     <use xlink:href="#DejaVuSans-65" transform="translate(1070.447266 0)"/>
     <use xlink:href="#DejaVuSans-6e" transform="translate(1131.970703 0)"/>
     <use xlink:href="#DejaVuSans-63" transform="translate(1195.349609 0)"/>
     <use xlink:href="#DejaVuSans-79" transform="translate(1250.330078 0)"/>
    </g>
   </g>
  </g>
 </g>
 <defs>
  <clipPath id="p91478dd184">
   <rect x="57.395" y="26.16" width="299.871667" height="219.88"/>
  </clipPath>
  <clipPath id="p54c4757f67">
   <rect x="413.361667" y="26.16" width="299.871667" height="219.88"/>
  </clipPath>
  <clipPath id="p89db94f4e6">
   <rect x="769.328333" y="26.16" width="299.871667" height="219.88"/>
  </clipPath>
 </defs>
</svg>
